<svg xmlns="http://www.w3.org/2000/svg" width="18" height="19" viewBox="0 0 18 19" fill="none">
  <path d="M9 5C8.44374 5 7.89997 5.16495 7.43746 5.47399C6.97495 5.78303 6.61446 6.22229 6.40159 6.7362C6.18872 7.25012 6.13302 7.81562 6.24154 8.36119C6.35006 8.90676 6.61793 9.4079 7.01126 9.80124C7.4046 10.1946 7.90574 10.4624 8.45131 10.571C8.99688 10.6795 9.56238 10.6238 10.0763 10.4109C10.5902 10.198 11.0295 9.83755 11.3385 9.37504C11.6475 8.91253 11.8125 8.36876 11.8125 7.8125C11.8125 7.06658 11.5162 6.35121 10.9887 5.82376C10.4613 5.29632 9.74592 5 9 5ZM9 9.5C8.66624 9.5 8.33998 9.40103 8.06248 9.21561C7.78497 9.03018 7.56868 8.76663 7.44095 8.45828C7.31323 8.14993 7.27981 7.81063 7.34492 7.48329C7.41004 7.15594 7.57076 6.85526 7.80676 6.61926C8.04276 6.38326 8.34344 6.22254 8.67078 6.15743C8.99813 6.09231 9.33743 6.12573 9.64578 6.25345C9.95413 6.38118 10.2177 6.59747 10.4031 6.87498C10.5885 7.15248 10.6875 7.47874 10.6875 7.8125C10.6875 8.26005 10.5097 8.68928 10.1932 9.00574C9.87678 9.32221 9.44755 9.5 9 9.5ZM9 1.625C7.35954 1.62686 5.78681 2.27935 4.62683 3.43933C3.46685 4.59931 2.81436 6.17204 2.8125 7.8125C2.8125 10.0203 3.83273 12.3603 5.76562 14.5801C6.63414 15.5831 7.61165 16.4864 8.68008 17.273C8.77466 17.3393 8.88734 17.3748 9.00281 17.3748C9.11829 17.3748 9.23097 17.3393 9.32555 17.273C10.392 16.486 11.3676 15.5828 12.2344 14.5801C14.1645 12.3603 15.1875 10.0203 15.1875 7.8125C15.1856 6.17204 14.5331 4.59931 13.3732 3.43933C12.2132 2.27935 10.6405 1.62686 9 1.625ZM9 16.1094C7.83773 15.1953 3.9375 11.8379 3.9375 7.8125C3.9375 6.46984 4.47087 5.18218 5.42027 4.23277C6.36967 3.28337 7.65734 2.75 9 2.75C10.3427 2.75 11.6303 3.28337 12.5797 4.23277C13.5291 5.18218 14.0625 6.46984 14.0625 7.8125C14.0625 11.8365 10.1623 15.1953 9 16.1094Z" fill="#ADB0CD"/>
</svg>