<svg width="24" height="24" viewBox="0 0 24 24" fill="none" xmlns="http://www.w3.org/2000/svg">
<path d="M7 16.75C9.62335 16.75 11.75 14.6234 11.75 12C11.75 9.37665 9.62335 7.25 7 7.25C4.37665 7.25 2.25 9.37665 2.25 12C2.25 14.6234 4.37665 16.75 7 16.75Z" stroke="#B1B3BA" stroke-linecap="round" stroke-linejoin="round"/>
<path d="M7 14.125C8.1736 14.125 9.125 13.1736 9.125 12C9.125 10.8264 8.1736 9.875 7 9.875C5.82639 9.875 4.875 10.8264 4.875 12C4.875 13.1736 5.82639 14.125 7 14.125Z" stroke="#B1B3BA" stroke-linecap="round" stroke-linejoin="round"/>
<path d="M12.0004 13H20.5C21.3284 13 22 12.3284 22 11.5V11.5C22 10.6716 21.3284 10 20.5 10H12" stroke="#B1B3BA" stroke-linecap="round" stroke-linejoin="round"/>
<path d="M15.25 14.5V16.1161C15.25 16.6043 15.6457 17 16.1339 17L16.1465 17C16.3728 17 16.5899 16.9101 16.75 16.75V16.75C16.9101 16.5899 16.9835 16.3661 17.0619 16.1538C17.1114 16.0195 17.1897 15.8961 17.2929 15.7929C17.4804 15.6054 17.7348 15.5 18 15.5C18.2652 15.5 18.5196 15.6054 18.7071 15.7929C18.8103 15.8961 18.8886 16.0195 18.9381 16.1538C19.0165 16.3661 19.0899 16.5899 19.25 16.75V16.75C19.4101 16.9101 19.6272 17 19.8535 17L19.8661 17C20.3543 17 20.75 16.6043 20.75 16.1161V14.5" stroke="#B1B3BA" stroke-linecap="round" stroke-linejoin="round"/>
</svg>
