<svg width="20" height="20" viewBox="0 0 20 20" fill="none" xmlns="http://www.w3.org/2000/svg">
<path d="M16.25 15H3.75C3.64061 14.9993 3.53331 14.97 3.43882 14.9149C3.34433 14.8597 3.26596 14.7808 3.21155 14.6859C3.15714 14.591 3.1286 14.4835 3.12876 14.3741C3.12893 14.2647 3.1578 14.1572 3.2125 14.0625C3.72735 13.1719 4.375 10.9227 4.375 8.125C4.375 6.63316 4.96763 5.20242 6.02253 4.14752C7.07742 3.09263 8.50816 2.5 10 2.5C11.4918 2.5 12.9226 3.09263 13.9775 4.14752C15.0324 5.20242 15.625 6.63316 15.625 8.125C15.625 10.9234 16.2734 13.1719 16.7891 14.0625C16.8438 14.1574 16.8727 14.2649 16.8728 14.3745C16.8729 14.484 16.8442 14.5916 16.7896 14.6865C16.735 14.7815 16.6564 14.8604 16.5617 14.9154C16.467 14.9705 16.3595 14.9996 16.25 15Z" fill="#1C1C1C" fill-opacity="0.1"/>
<path d="M17.3281 13.7453C16.8945 12.9984 16.25 10.8852 16.25 8.125C16.25 6.4674 15.5915 4.87769 14.4194 3.70558C13.2473 2.53348 11.6576 1.875 10 1.875C8.3424 1.875 6.75268 2.53348 5.58058 3.70558C4.40848 4.87769 3.75 6.4674 3.75 8.125C3.75 10.8859 3.10469 12.9984 2.67109 13.7453C2.56037 13.9352 2.50167 14.1509 2.50091 14.3707C2.50016 14.5905 2.55737 14.8066 2.66679 14.9973C2.77621 15.1879 2.93397 15.3463 3.12414 15.4565C3.31432 15.5667 3.5302 15.6248 3.75 15.625H6.93828C7.08248 16.3306 7.46595 16.9647 8.02385 17.4201C8.58175 17.8756 9.27982 18.1243 10 18.1243C10.7202 18.1243 11.4182 17.8756 11.9761 17.4201C12.534 16.9647 12.9175 16.3306 13.0617 15.625H16.25C16.4697 15.6247 16.6855 15.5665 16.8756 15.4562C17.0656 15.346 17.2233 15.1875 17.3326 14.9969C17.4419 14.8063 17.4991 14.5903 17.4983 14.3705C17.4975 14.1508 17.4388 13.9351 17.3281 13.7453ZM10 16.875C9.61236 16.8749 9.23428 16.7546 8.91781 16.5308C8.60134 16.3069 8.36202 15.9905 8.23281 15.625H11.7672C11.638 15.9905 11.3987 16.3069 11.0822 16.5308C10.7657 16.7546 10.3876 16.8749 10 16.875ZM3.75 14.375C4.35156 13.3406 5 10.9438 5 8.125C5 6.79892 5.52678 5.52715 6.46446 4.58947C7.40215 3.65178 8.67392 3.125 10 3.125C11.3261 3.125 12.5979 3.65178 13.5355 4.58947C14.4732 5.52715 15 6.79892 15 8.125C15 10.9414 15.6469 13.3383 16.25 14.375H3.75Z" fill="#1C1C1C"/>
</svg>
