<svg width="16" height="16" viewBox="0 0 16 16" fill="none" xmlns="http://www.w3.org/2000/svg">
<path d="M8 5.50025C7.50555 5.50025 7.0222 5.64687 6.61107 5.92158C6.19995 6.19628 5.87952 6.58673 5.6903 7.04354C5.50108 7.50036 5.45157 8.00302 5.54804 8.48798C5.6445 8.97293 5.8826 9.41839 6.23223 9.76802C6.58186 10.1176 7.02732 10.3558 7.51227 10.4522C7.99723 10.5487 8.49989 10.4992 8.95671 10.31C9.41352 10.1207 9.80397 9.8003 10.0787 9.38918C10.3534 8.97805 10.5 8.4947 10.5 8.00025C10.5 7.33721 10.2366 6.70133 9.76777 6.23248C9.29893 5.76364 8.66304 5.50025 8 5.50025ZM8 9.50025C7.70333 9.50025 7.41332 9.41228 7.16664 9.24746C6.91997 9.08263 6.72771 8.84837 6.61418 8.57428C6.50065 8.30019 6.47094 7.99859 6.52882 7.70762C6.5867 7.41664 6.72956 7.14937 6.93934 6.93959C7.14912 6.72981 7.41639 6.58695 7.70736 6.52907C7.99834 6.4712 8.29994 6.5009 8.57402 6.61443C8.84811 6.72796 9.08238 6.92022 9.2472 7.1669C9.41203 7.41357 9.5 7.70358 9.5 8.00025C9.5 8.39808 9.34196 8.77961 9.06066 9.06091C8.77935 9.34222 8.39782 9.50025 8 9.50025ZM12.6069 9.9465C12.3921 10.4544 12.0947 10.9232 11.7269 11.334C11.6378 11.4304 11.5144 11.4879 11.3833 11.4941C11.2522 11.5003 11.124 11.4547 11.0262 11.3672C10.9284 11.2797 10.869 11.1572 10.8607 11.0262C10.8524 10.8953 10.8959 10.7663 10.9819 10.6671C11.6384 9.93409 12.0014 8.98462 12.0014 8.00056C12.0014 7.01651 11.6384 6.06704 10.9819 5.334C10.9369 5.28529 10.902 5.22811 10.8793 5.16578C10.8566 5.10346 10.8465 5.03724 10.8496 4.97099C10.8528 4.90473 10.8691 4.83976 10.8976 4.77986C10.926 4.71996 10.9662 4.66633 11.0156 4.62209C11.065 4.57786 11.1227 4.54389 11.1854 4.52218C11.2481 4.50047 11.3145 4.49145 11.3807 4.49564C11.4469 4.49983 11.5116 4.51715 11.571 4.54659C11.6304 4.57603 11.6834 4.61701 11.7269 4.66713C12.3582 5.37359 12.7761 6.24474 12.9318 7.1793C13.0876 8.11387 12.9749 9.07345 12.6069 9.9465ZM4.3125 6.44338C4.01749 7.14173 3.92701 7.90955 4.0516 8.65735C4.1762 9.40515 4.51074 10.1022 5.01625 10.6671C5.10221 10.7663 5.14574 10.8953 5.13745 11.0262C5.12916 11.1572 5.06971 11.2797 4.97193 11.3672C4.87415 11.4547 4.74588 11.5003 4.61479 11.4941C4.48371 11.4879 4.36032 11.4304 4.27125 11.334C3.45037 10.4177 2.99644 9.23077 2.99644 8.00056C2.99644 6.77036 3.45037 5.5834 4.27125 4.66713C4.35968 4.56808 4.48384 4.50823 4.6164 4.50073C4.74897 4.49323 4.87908 4.53869 4.97812 4.62713C5.07717 4.71556 5.13702 4.83972 5.14452 4.97228C5.15202 5.10484 5.10656 5.23496 5.01812 5.334C4.72312 5.66218 4.48467 6.03707 4.3125 6.44338ZM15.5 8.00025C15.503 9.96384 14.7332 11.8497 13.3569 13.2503C13.3113 13.2989 13.2565 13.338 13.1957 13.3652C13.1348 13.3924 13.0691 13.4072 13.0025 13.4086C12.9358 13.41 12.8696 13.3981 12.8076 13.3736C12.7456 13.349 12.6892 13.3124 12.6416 13.2657C12.594 13.219 12.5562 13.1633 12.5305 13.1018C12.5048 13.0403 12.4916 12.9743 12.4917 12.9076C12.4918 12.841 12.5053 12.775 12.5313 12.7137C12.5573 12.6523 12.5953 12.5967 12.6431 12.5503C13.8348 11.3361 14.5025 9.70277 14.5025 8.0015C14.5025 6.30023 13.8348 4.6669 12.6431 3.45275C12.55 3.3581 12.4982 3.23032 12.4993 3.09752C12.5003 2.96472 12.5541 2.83778 12.6487 2.74463C12.7434 2.65147 12.8712 2.59973 13.004 2.60078C13.1368 2.60184 13.2637 2.6556 13.3569 2.75025C14.7332 4.15077 15.503 6.03667 15.5 8.00025ZM3.35687 12.549C3.40292 12.5959 3.43928 12.6513 3.46389 12.7123C3.48849 12.7732 3.50086 12.8383 3.50028 12.904C3.4997 12.9697 3.48618 13.0347 3.4605 13.0952C3.43483 13.1556 3.39749 13.2105 3.35062 13.2565C3.30376 13.3025 3.24828 13.3389 3.18736 13.3635C3.12645 13.3881 3.06128 13.4005 2.99558 13.3999C2.92988 13.3993 2.86494 13.3858 2.80447 13.3601C2.74399 13.3345 2.68917 13.2971 2.64312 13.2503C1.26699 11.8493 0.495937 9.96403 0.495937 8.00025C0.495937 6.03647 1.26699 4.15121 2.64312 2.75025C2.68866 2.70157 2.74347 2.66248 2.80432 2.63529C2.86518 2.6081 2.93087 2.59335 2.99751 2.59191C3.06415 2.59048 3.13041 2.60238 3.19238 2.62692C3.25436 2.65146 3.3108 2.68815 3.35839 2.73482C3.40598 2.7815 3.44376 2.83721 3.4695 2.8987C3.49524 2.96019 3.50843 3.0262 3.50829 3.09286C3.50815 3.15951 3.49468 3.22547 3.46868 3.28685C3.44267 3.34822 3.40466 3.40378 3.35687 3.45025C2.16516 4.6644 1.49752 6.29773 1.49752 7.999C1.49752 9.70027 2.16516 11.3336 3.35687 12.5478V12.549Z" fill="#1C1C1C"/>
</svg>
