<svg xmlns="http://www.w3.org/2000/svg" width="18" height="19" viewBox="0 0 18 19" fill="none">
  <path d="M16.3125 7.8125C16.4617 7.8125 16.6048 7.75324 16.7102 7.64775C16.8157 7.54226 16.875 7.39918 16.875 7.25V5C16.875 4.70163 16.7565 4.41548 16.5455 4.2045C16.3345 3.99353 16.0484 3.875 15.75 3.875H2.25C1.95163 3.875 1.66548 3.99353 1.4545 4.2045C1.24353 4.41548 1.125 4.70163 1.125 5V7.25C1.125 7.39918 1.18426 7.54226 1.28975 7.64775C1.39524 7.75324 1.53832 7.8125 1.6875 7.8125C2.13505 7.8125 2.56428 7.99029 2.88074 8.30676C3.19721 8.62322 3.375 9.05245 3.375 9.5C3.375 9.94755 3.19721 10.3768 2.88074 10.6932C2.56428 11.0097 2.13505 11.1875 1.6875 11.1875C1.53832 11.1875 1.39524 11.2468 1.28975 11.3523C1.18426 11.4577 1.125 11.6008 1.125 11.75V14C1.125 14.2984 1.24353 14.5845 1.4545 14.7955C1.66548 15.0065 1.95163 15.125 2.25 15.125H15.75C16.0484 15.125 16.3345 15.0065 16.5455 14.7955C16.7565 14.5845 16.875 14.2984 16.875 14V11.75C16.875 11.6008 16.8157 11.4577 16.7102 11.3523C16.6048 11.2468 16.4617 11.1875 16.3125 11.1875C15.8649 11.1875 15.4357 11.0097 15.1193 10.6932C14.8028 10.3768 14.625 9.94755 14.625 9.5C14.625 9.05245 14.8028 8.62322 15.1193 8.30676C15.4357 7.99029 15.8649 7.8125 16.3125 7.8125ZM2.25 12.2562C2.88579 12.1271 3.45739 11.7822 3.86796 11.2799C4.27853 10.7776 4.50282 10.1488 4.50282 9.5C4.50282 8.85124 4.27853 8.22242 3.86796 7.7201C3.45739 7.21779 2.88579 6.87285 2.25 6.74375V5H6.1875V14H2.25V12.2562ZM15.75 12.2562V14H7.3125V5H15.75V6.74375C15.1142 6.87285 14.5426 7.21779 14.132 7.7201C13.7215 8.22242 13.4972 8.85124 13.4972 9.5C13.4972 10.1488 13.7215 10.7776 14.132 11.2799C14.5426 11.7822 15.1142 12.1271 15.75 12.2562Z" fill="#ADB0CD"/>
</svg>