<svg width="24" height="25" viewBox="0 0 24 25" fill="none" xmlns="http://www.w3.org/2000/svg">
<path fill-rule="evenodd" clip-rule="evenodd" d="M3.57257 2.8999L2.25354 4.19741L19.2271 20.8999L20.5462 19.602L3.57257 2.8999V2.8999Z" fill="#CFD0E1"/>
<path d="M5.04034 6.93954L6.28185 8.16119C4.92279 9.29986 3.84056 10.7172 3.14123 11.9573L3.1391 11.9615C5.08676 15.1659 8.17713 18.1943 12.0776 17.7349C13.1304 17.6109 14.1125 17.2567 15.0099 16.7501L16.2668 17.9864C14.5176 19.0911 12.5124 19.6762 10.3399 19.387C6.4224 18.8656 3.21917 15.704 1.19995 11.9909C2.14802 10.1137 3.4449 8.31793 5.04034 6.93954V6.93954ZM7.86409 5.12906C8.95952 4.64878 10.1448 4.36631 11.4106 4.34619C11.4809 4.34578 12.3152 4.38475 12.6934 4.44594C12.9307 4.4845 13.167 4.53269 13.4 4.59262C17.116 5.54522 19.8691 8.63644 21.6 11.8211C20.8738 13.2641 19.9227 14.6722 18.7886 15.8788L17.5845 14.694C18.4223 13.8055 19.1208 12.8165 19.6587 11.8572C19.6587 11.8572 19.1178 11.0014 18.7076 10.4641C18.444 10.1188 18.1667 9.78349 17.8754 9.46037C17.6454 9.20557 16.7523 8.34014 16.5398 8.15993C15.1138 6.95337 13.4396 6.00664 11.4315 6.02256C10.6538 6.03472 9.90588 6.18559 9.19589 6.43956L7.86409 5.12906V5.12906Z" fill="#CFD0E1"/>
<path fill-rule="evenodd" clip-rule="evenodd" d="M8.4199 10.2654L9.37831 11.2081L13.0674 14.8381C12.5742 15.1106 12.0052 15.2656 11.4 15.2656C9.51532 15.2656 7.98547 13.7602 7.98547 11.9058C7.98547 11.3102 8.14348 10.7507 8.4199 10.2654ZM11.3369 8.54674C11.3578 8.54632 11.3791 8.5459 11.4 8.5459C13.2846 8.5459 14.8144 10.0517 14.8144 11.9058C14.8144 11.9267 14.8144 11.9472 14.814 11.9678L11.3369 8.54674Z" fill="#CFD0E1"/>
</svg>
