<svg width="21" height="20" viewBox="0 0 21 20" fill="none" xmlns="http://www.w3.org/2000/svg">
<path d="M20.5001 10.2222C20.5001 9.39995 20.432 8.79995 20.2847 8.17773H10.7043V11.8888H16.3278C16.2145 12.8111 15.6022 14.1999 14.2417 15.1332L14.2226 15.2575L17.2517 17.5572L17.4616 17.5777C19.389 15.8333 20.5001 13.2666 20.5001 10.2222" fill="#4285F4"/>
<path d="M10.7043 20.0002C13.4593 20.0002 15.7722 19.1113 17.4615 17.578L14.2416 15.1335C13.38 15.7224 12.2235 16.1335 10.7043 16.1335C8.00593 16.1335 5.71573 14.3891 4.89934 11.978L4.77967 11.988L1.62994 14.3769L1.58875 14.4891C3.26671 17.7557 6.71338 20.0002 10.7043 20.0002Z" fill="#34A853"/>
<path d="M4.89898 11.9778C4.68357 11.3555 4.55891 10.6888 4.55891 9.99997C4.55891 9.31104 4.68357 8.6444 4.88765 8.02219L4.88194 7.88967L1.69274 5.4624L1.58839 5.51104C0.896824 6.86662 0.5 8.38887 0.5 9.99997C0.5 11.6111 0.896824 13.1333 1.58839 14.4888L4.89898 11.9778" fill="#FBBC05"/>
<path d="M10.7043 3.86664C12.6203 3.86664 13.9128 4.67775 14.6498 5.35557L17.5295 2.6C15.7609 0.988893 13.4593 0 10.7043 0C6.71338 0 3.26671 2.24443 1.58875 5.51107L4.888 8.02221C5.71573 5.61111 8.00593 3.86664 10.7043 3.86664" fill="#EB4335"/>
</svg>
