<svg width="20" height="21" viewBox="0 0 20 21" fill="none" xmlns="http://www.w3.org/2000/svg">
<path d="M20.0001 10.7222C20.0001 9.89995 19.932 9.29995 19.7847 8.67773H10.2043V12.3888H15.8278C15.7145 13.3111 15.1022 14.6999 13.7417 15.6332L13.7226 15.7575L16.7517 18.0572L16.9616 18.0777C18.889 16.3333 20.0001 13.7666 20.0001 10.7222" fill="#4285F4"/>
<path d="M10.2043 20.5002C12.9593 20.5002 15.2722 19.6113 16.9615 18.078L13.7416 15.6335C12.88 16.2224 11.7235 16.6335 10.2043 16.6335C7.50593 16.6335 5.21573 14.8891 4.39934 12.478L4.27967 12.488L1.12994 14.8769L1.08875 14.9891C2.76671 18.2557 6.21338 20.5002 10.2043 20.5002Z" fill="#34A853"/>
<path d="M4.39898 12.4778C4.18357 11.8555 4.05891 11.1888 4.05891 10.5C4.05891 9.81104 4.18357 9.1444 4.38765 8.52219L4.38194 8.38967L1.19274 5.9624L1.08839 6.01104C0.396824 7.36662 0 8.88887 0 10.5C0 12.1111 0.396824 13.6333 1.08839 14.9888L4.39898 12.4778" fill="#FBBC05"/>
<path d="M10.2043 4.36664C12.1203 4.36664 13.4128 5.17775 14.1498 5.85557L17.0295 3.1C15.2609 1.48889 12.9593 0.5 10.2043 0.5C6.21338 0.5 2.76671 2.74443 1.08875 6.01107L4.388 8.52221C5.21573 6.11111 7.50593 4.36664 10.2043 4.36664" fill="#EB4335"/>
</svg>
