<svg width="113" height="353" viewBox="0 0 113 353" fill="none" xmlns="http://www.w3.org/2000/svg">
<path d="M53.5264 52.0755L36.9457 57.5332V33.6631H51.9915L53.5264 52.0755Z" fill="#FFABB7"/>
<path d="M38.9997 40.2704C48.1243 40.2704 55.5212 32.8735 55.5212 23.749C55.5212 14.6244 48.1243 7.22754 38.9997 7.22754C29.8752 7.22754 22.4783 14.6244 22.4783 23.749C22.4783 32.8735 29.8752 40.2704 38.9997 40.2704Z" fill="#FFABB7"/>
<path d="M43.5379 22.11C40.7719 22.0285 38.9552 19.2329 37.88 16.682C36.8047 14.1311 35.6998 11.202 33.1341 10.149C31.0355 9.28886 27.3353 15.1099 25.6817 13.5601C23.9539 11.9436 25.6372 3.64576 27.4688 2.15527C29.3004 0.664778 31.8068 0.375577 34.1648 0.264346C39.9192 -0.00260747 45.7106 0.464561 51.3537 1.64361C54.8463 2.37031 58.4354 3.46779 60.9566 5.98901C64.1452 9.19246 64.9609 14.0199 65.1908 18.5358C65.428 23.1556 65.1611 27.9904 62.9142 32.0318C60.6674 36.0732 55.966 39.0542 51.4575 38.0234C51.0052 35.5763 51.4649 33.0625 51.6429 30.571C51.8134 28.0868 51.6355 25.4025 50.1153 23.4226C48.6026 21.4427 45.3546 20.6566 43.5898 22.4141" fill="#2F2E43"/>
<path d="M63.8635 27.8349C65.5171 26.6262 67.497 25.6103 69.5288 25.8625C71.7238 26.1294 73.585 27.9388 74.1486 30.0818C74.7122 32.2248 74.0818 34.5829 72.7174 36.333C71.3604 38.083 69.336 39.2398 67.2004 39.8182C65.962 40.1519 64.605 40.2928 63.426 39.7885C61.6908 39.0396 60.749 36.8224 61.4312 35.0575" fill="#2F2E43"/>
<path d="M0.639957 183.283C-0.464933 188.711 1.55945 193.672 5.14849 194.361C8.73753 195.051 12.5416 191.202 13.6391 185.774C14.1063 183.609 14.0321 181.37 13.4241 179.234L27.0906 94.1426L9.99815 90.9243L3.39848 177.313C1.99697 179.063 1.05522 181.11 0.639957 183.29V183.283Z" fill="#FFABB7"/>
<path d="M36.7677 46.5806H25.1033C16.8574 47.8338 14.618 52.2311 12.7419 60.3583C9.87957 72.7568 6.22379 89.2635 6.9505 89.5082C8.11471 89.8938 27.9731 99.2371 38.0951 97.1015L36.7677 46.5806Z" fill="#0A66C2"/>
<path d="M48.0465 317.62H32.5187V339.651H48.0465V317.62Z" fill="#FFABB7"/>
<path d="M17.3986 352.984C15.7672 352.984 14.3138 352.947 13.2163 352.843C9.09338 352.465 5.15581 349.417 3.1759 347.638C2.28606 346.837 2.00428 345.561 2.46403 344.464C2.79772 343.678 3.4577 343.084 4.28081 342.855L15.1814 339.74L32.83 327.831L33.0302 328.187C33.1044 328.32 34.8396 331.442 35.4179 333.548C35.6404 334.349 35.5811 335.017 35.2474 335.536C35.0175 335.892 34.6912 336.099 34.4317 336.218C34.7506 336.552 35.7516 337.234 38.8364 337.723C43.3376 338.435 44.2867 333.771 44.3238 333.578L44.3535 333.422L44.487 333.333C46.63 331.954 47.9499 331.324 48.4023 331.457C48.6841 331.539 49.1586 331.687 50.4415 344.39C50.5676 344.79 51.4648 347.712 50.8568 350.507C50.1968 353.548 36.9084 352.502 34.2463 352.265C34.1722 352.272 24.2207 352.984 17.406 352.984H17.3986Z" fill="#2F2E43"/>
<path d="M92.2615 300.311L79.0861 308.528L90.7444 327.221L103.92 319.004L92.2615 300.311Z" fill="#FFABB7"/>
<path d="M74.7641 349.966C72.9399 349.966 71.264 349.743 70.0701 349.536C68.8985 349.328 67.979 348.394 67.7862 347.222C67.6527 346.377 67.8974 345.524 68.4758 344.894L76.0766 336.484L84.7526 317.041L85.1085 317.234C85.242 317.308 88.3639 319.036 89.973 320.519C90.5885 321.083 90.8925 321.683 90.8777 322.299C90.8703 322.729 90.7071 323.07 90.544 323.315C90.9889 323.433 92.1976 323.478 95.0748 322.262C99.2719 320.49 97.6108 316.025 97.5367 315.84L97.4773 315.692L97.5441 315.551C98.6341 313.245 99.4127 312.014 99.8725 311.888C100.162 311.806 100.636 311.68 108.445 321.787C108.764 322.054 111.07 324.064 112.034 326.756C113.079 329.685 101.252 335.832 98.8714 337.033C98.7973 337.093 86.421 346.087 81.3341 348.646C79.3171 349.662 76.9293 349.973 74.7566 349.973L74.7641 349.966Z" fill="#2F2E43"/>
<path d="M59.481 133.385H16.0047L12.0597 173.829L29.3227 323.263H51.5169L42.6407 236.956L78.6423 314.876L98.3672 301.069L70.2555 228.324C70.2555 228.324 80.296 164.952 72.406 149.165C64.516 133.385 59.481 133.385 59.481 133.385Z" fill="#2F2E43"/>
<path d="M81.1116 135.847H12.0597L32.7782 46.5806H62.8624L81.1116 135.847Z" fill="#4593E2"/>
<path d="M87.3256 183.283C88.4305 188.711 86.4061 193.672 82.8171 194.362C79.228 195.051 75.424 191.203 74.3265 185.775C73.8593 183.61 73.9335 181.37 74.5415 179.234L60.875 94.1431L77.9674 90.9248L84.5671 177.314C85.9686 179.064 86.9104 181.111 87.3256 183.291V183.283Z" fill="#FFABB7"/>
<path d="M51.198 46.5806H62.8624C71.1082 47.8338 73.3477 52.2311 75.2238 60.3583C78.0861 72.7568 81.7419 89.2635 81.0152 89.5082C79.851 89.8938 59.9926 99.2371 49.8706 97.1015L51.198 46.5806Z" fill="#0A66C2"/>
</svg>
