<svg width="16" height="16" viewBox="0 0 16 16" fill="none" xmlns="http://www.w3.org/2000/svg">
<path d="M14.35 14.3559C14.2567 14.4478 14.131 14.4994 14 14.4996C13.8672 14.499 13.7397 14.4476 13.6438 14.3559L10.9438 11.6496C9.80662 12.6047 8.34465 13.084 6.86276 12.9874C5.38086 12.8908 3.99346 12.2259 2.98991 11.1313C1.98636 10.0366 1.44415 8.59681 1.47636 7.11212C1.50858 5.62743 2.11272 4.21249 3.1628 3.16241C4.21289 2.11233 5.62782 1.50818 7.11251 1.47597C8.5972 1.44375 10.037 1.98596 11.1316 2.98951C12.2263 3.99306 12.8912 5.38046 12.9878 6.86236C13.0844 8.34426 12.6051 9.80623 11.65 10.9434L14.35 13.6434C14.3972 13.6899 14.4348 13.7453 14.4604 13.8065C14.486 13.8677 14.4992 13.9333 14.4992 13.9996C14.4992 14.0659 14.486 14.1316 14.4604 14.1927C14.4348 14.2539 14.3972 14.3093 14.35 14.3559ZM7.25001 11.9996C8.18947 11.9996 9.10783 11.721 9.88896 11.1991C10.6701 10.6772 11.2789 9.9353 11.6384 9.06736C11.9979 8.19941 12.092 7.24434 11.9087 6.32293C11.7255 5.40152 11.2731 4.55515 10.6088 3.89085C9.94446 3.22655 9.09809 2.77416 8.17668 2.59088C7.25527 2.4076 6.30021 2.50166 5.43226 2.86118C4.56431 3.2207 3.82246 3.82952 3.30052 4.61065C2.77859 5.39178 2.50001 6.31015 2.50001 7.24961C2.50166 8.50888 3.00264 9.7161 3.89307 10.6065C4.78351 11.497 5.99073 11.998 7.25001 11.9996Z" fill="#1C1C1C" fill-opacity="0.2"/>
</svg>
