<svg width="20" height="20" viewBox="0 0 20 20" fill="none" xmlns="http://www.w3.org/2000/svg">
<path d="M16.7733 7C18.4081 7 19.7333 8.34315 19.7333 10C19.7333 11.6569 18.4081 13 16.7733 13L2.96 13C1.32524 13 -7.14578e-08 11.6569 0 10C7.14578e-08 8.34315 1.32524 7 2.96 7L16.7733 7Z" fill="#7094F4"/>
<path d="M6.90674 3C6.90674 1.34315 8.23198 0 9.86674 0C11.5015 0 12.8267 1.34315 12.8267 3V17C12.8267 18.6569 11.5015 20 9.86674 20C8.23198 20 6.90674 18.6569 6.90674 17V3Z" fill="#7094F4"/>
<path d="M6.90674 3C6.90674 1.34315 8.23198 0 9.86674 0C11.5015 0 12.8267 1.34315 12.8267 3V17C12.8267 18.6569 11.5015 20 9.86674 20C8.23198 20 6.90674 18.6569 6.90674 17V3Z" fill="white" fill-opacity="0.4" style="mix-blend-mode:screen"/>
<path d="M16.844 12.8283C17.9999 13.9999 17.9999 15.8995 16.844 17.0711C15.688 18.2427 13.8137 18.2427 12.6578 17.0711L2.88994 7.17129C1.73395 5.99968 1.73395 4.10012 2.88994 2.92851C4.04593 1.7569 5.92016 1.7569 7.07615 2.92851L16.844 12.8283Z" fill="#7094F4"/>
<path d="M16.844 12.8283C17.9999 13.9999 17.9999 15.8995 16.844 17.0711C15.688 18.2427 13.8137 18.2427 12.6578 17.0711L2.88994 7.17129C1.73395 5.99968 1.73395 4.10012 2.88994 2.92851C4.04593 1.7569 5.92016 1.7569 7.07615 2.92851L16.844 12.8283Z" fill="white" fill-opacity="0.2" style="mix-blend-mode:soft-light"/>
<path d="M12.6578 2.92851C13.8137 1.7569 15.688 1.7569 16.844 2.92851C17.9999 4.10012 17.9999 5.99968 16.844 7.17129L7.07615 17.0711C5.92016 18.2427 4.04593 18.2427 2.88994 17.0711C1.73395 15.8995 1.73395 13.9999 2.88994 12.8283L12.6578 2.92851Z" fill="#7094F4"/>
<path d="M12.6578 2.92851C13.8137 1.7569 15.688 1.7569 16.844 2.92851C17.9999 4.10012 17.9999 5.99968 16.844 7.17129L7.07615 17.0711C5.92016 18.2427 4.04593 18.2427 2.88994 17.0711C1.73395 15.8995 1.73395 13.9999 2.88994 12.8283L12.6578 2.92851Z" fill="white" fill-opacity="0.3" style="mix-blend-mode:overlay"/>
<path fill-rule="evenodd" clip-rule="evenodd" d="M9.86663 3C9.64866 3 9.47196 3.17909 9.47196 3.4V8.64804C9.47196 8.7692 9.47196 8.82978 9.44832 8.85784C9.42781 8.88218 9.39704 8.89509 9.36555 8.89258C9.32927 8.88969 9.287 8.84685 9.20247 8.76118L5.54102 5.05025C5.3869 4.89404 5.13701 4.89404 4.98288 5.05025C4.82875 5.20646 4.82875 5.45973 4.98288 5.61594L8.64432 9.32686C8.72886 9.41254 8.77112 9.45538 8.77398 9.49215C8.77646 9.52407 8.76371 9.55525 8.7397 9.57604C8.71202 9.6 8.65224 9.6 8.53269 9.6H3.35463C3.13666 9.6 2.95996 9.77909 2.95996 10C2.95996 10.2209 3.13666 10.4 3.35463 10.4H8.5327C8.65225 10.4 8.71202 10.4 8.7397 10.424C8.76371 10.4447 8.77646 10.4759 8.77398 10.5078C8.77113 10.5446 8.72886 10.5875 8.64433 10.6731L4.98288 14.3841C4.82875 14.5403 4.82875 14.7935 4.98288 14.9497C5.13701 15.106 5.3869 15.106 5.54102 14.9497L9.20247 11.2388C9.287 11.1531 9.32927 11.1103 9.36555 11.1074C9.39704 11.1049 9.42781 11.1178 9.44832 11.1422C9.47196 11.1702 9.47196 11.2308 9.47196 11.352V16.6C9.47196 16.8209 9.64866 17 9.86663 17C10.0846 17 10.2613 16.8209 10.2613 16.6V11.352C10.2613 11.2308 10.2613 11.1702 10.2849 11.1422C10.3054 11.1178 10.3362 11.1049 10.3677 11.1074C10.404 11.1103 10.4463 11.1531 10.5308 11.2388L14.1922 14.9497C14.3464 15.106 14.5963 15.106 14.7504 14.9497C14.9045 14.7935 14.9045 14.5403 14.7504 14.3841L11.0889 10.6731C11.0044 10.5875 10.9621 10.5446 10.9593 10.5078C10.9568 10.4759 10.9695 10.4447 10.9936 10.424C11.0212 10.4 11.081 10.4 11.2006 10.4H16.3786C16.5966 10.4 16.7733 10.2209 16.7733 10C16.7733 9.77909 16.5966 9.6 16.3786 9.6H11.2006C11.081 9.6 11.0212 9.6 10.9936 9.57604C10.9695 9.55525 10.9568 9.52407 10.9593 9.49215C10.9621 9.45538 11.0044 9.41254 11.0889 9.32686L14.7504 5.61594C14.9045 5.45973 14.9045 5.20646 14.7504 5.05025C14.5963 4.89404 14.3464 4.89404 14.1922 5.05025L10.5308 8.76118C10.4463 8.84685 10.404 8.88969 10.3677 8.89259C10.3362 8.8951 10.3054 8.88218 10.2849 8.85784C10.2613 8.82979 10.2613 8.76921 10.2613 8.64804V3.4C10.2613 3.17909 10.0846 3 9.86663 3Z" fill="white"/>
</svg>
