<svg width="51" height="10" viewBox="0 0 51 10" fill="none" xmlns="http://www.w3.org/2000/svg">
<path d="M41.8381 5.71387L41.8381 0.713867H40.4286V5.71387C40.4286 7.68631 42.0063 9.28529 43.9524 9.2853C45.8985 9.2853 47.4762 7.68631 47.4762 5.71387L47.4762 0.713867H46.0667L46.0667 5.71387C46.0667 6.89733 45.1201 7.85672 43.9524 7.85672C42.7847 7.85672 41.8381 6.89733 41.8381 5.71387Z" fill="#4F507F"/>
<path d="M41.8381 5.71387L41.8381 0.713867H40.4286V5.71387C40.4286 7.68631 42.0063 9.28529 43.9524 9.2853C45.8985 9.2853 47.4762 7.68631 47.4762 5.71387L47.4762 0.713867H46.0667L46.0667 5.71387C46.0667 6.89733 45.1201 7.85672 43.9524 7.85672C42.7847 7.85672 41.8381 6.89733 41.8381 5.71387Z" fill="white" fill-opacity="0.4" style="mix-blend-mode:hard-light"/>
<path d="M49.5905 0.713867V9.2853H51V0.713867H49.5905Z" fill="#4F507F"/>
<path d="M49.5905 0.713867V9.2853H51V0.713867H49.5905Z" fill="white" fill-opacity="0.4" style="mix-blend-mode:hard-light"/>
<path d="M6.42484 8.6407C5.83821 9.07624 5.04994 9.2853 4.06001 9.2853C3.45506 9.2853 2.9051 9.19819 2.41014 9.04139C1.91518 8.8846 1.42021 8.67554 0.961914 8.39679L1.5302 7.15986C1.9885 7.45603 2.41014 7.64766 2.81344 7.76962C3.21674 7.89157 3.62005 7.96125 4.00502 7.96125C4.57331 7.96125 4.99494 7.87415 5.30659 7.68251C5.5999 7.49087 5.74655 7.22955 5.74655 6.88111C5.74655 6.49784 5.58157 6.20167 5.23326 6.01003C4.88495 5.8184 4.44499 5.62676 3.91336 5.43512C3.12509 5.15638 2.5018 4.84279 2.0435 4.49435C1.56687 4.14592 1.32855 3.6407 1.31022 2.97868C1.29189 2.26439 1.56687 1.7069 2.13516 1.3062C2.70345 0.905505 3.43673 0.713867 4.35333 0.713867C4.81163 0.713867 5.25159 0.766132 5.69156 0.888083C6.13153 1.01003 6.55316 1.18425 6.93813 1.42815L6.36984 2.61282C6.02153 2.42118 5.69156 2.28181 5.37992 2.17728C5.04994 2.07275 4.70163 2.02049 4.35333 2.02049C3.89503 2.02049 3.52839 2.09017 3.25341 2.24697C2.97843 2.40376 2.85011 2.64767 2.85011 2.96125C2.85011 3.30969 3.03343 3.57101 3.38173 3.74523C3.73004 3.91944 4.18834 4.11108 4.71997 4.32014C5.50824 4.59888 6.13153 4.91247 6.60816 5.27833C7.06646 5.64418 7.30477 6.14941 7.30477 6.82885C7.30477 7.61282 7.01146 8.20516 6.42484 8.6407Z" fill="#4F507F"/>
<path d="M15.0572 4.2853V9.2853H16.4667V4.2853C16.4667 2.31285 14.889 0.713867 12.9429 0.713867C10.9967 0.713867 9.41906 2.31285 9.41906 4.2853V9.2853H10.8286V4.2853C10.8286 3.10183 11.7752 2.14244 12.9429 2.14244C14.1106 2.14244 15.0572 3.10183 15.0572 4.2853Z" fill="#4F507F"/>
<path fill-rule="evenodd" clip-rule="evenodd" d="M27.0381 4.99958C27.0381 7.36652 25.1449 9.2853 22.8095 9.2853C20.4742 9.2853 18.581 7.36652 18.581 4.99958C18.581 2.63265 20.4742 0.713867 22.8095 0.713867C25.1449 0.713867 27.0381 2.63265 27.0381 4.99958ZM25.6286 4.99958C25.6286 6.57754 24.3664 7.85672 22.8095 7.85672C21.2526 7.85672 19.9905 6.57754 19.9905 4.99958C19.9905 3.42162 21.2526 2.14244 22.8095 2.14244C24.3664 2.14244 25.6286 3.42162 25.6286 4.99958Z" fill="#4F507F"/>
<path d="M28.4476 0.713867L29.776 8.10783C30.0516 9.64158 32.0722 9.69129 32.4125 8.17269L33.1999 3.95802C33.2288 3.8032 33.4336 3.80635 33.4585 3.96201L34.1211 8.11008C34.4152 9.64141 36.4389 9.6611 36.7587 8.13575L38.3143 0.713867H36.9462L35.5774 7.82844C35.548 7.98139 35.3462 7.97938 35.3194 7.82587L34.076 0.713867H32.699L31.2429 7.84937C31.2118 8.00179 31.0103 7.99731 30.985 7.84364L29.8093 0.713867H28.4476Z" fill="#4F507F"/>
</svg>
