<svg width="20" height="20" viewBox="0 0 20 20" fill="none" xmlns="http://www.w3.org/2000/svg">
<path d="M14.3851 11.5395C14.2995 11.6147 14.2358 11.7118 14.2009 11.8203C14.1659 11.9289 14.161 12.0448 14.1867 12.1559L15.2429 16.7293C15.2709 16.8488 15.263 16.9738 15.2204 17.0888C15.1777 17.2039 15.1022 17.3038 15.0031 17.3762C14.9041 17.4485 14.786 17.4902 14.6634 17.4959C14.5409 17.5016 14.4194 17.4711 14.314 17.4083L10.3219 14.9864C10.2248 14.9274 10.1135 14.8962 9.99998 14.8962C9.88645 14.8962 9.7751 14.9274 9.6781 14.9864L5.68591 17.4083C5.58058 17.4711 5.45907 17.5016 5.33654 17.4959C5.214 17.4902 5.09585 17.4485 4.99682 17.3762C4.89778 17.3038 4.82223 17.2039 4.77959 17.0888C4.73695 16.9738 4.72909 16.8488 4.75701 16.7293L5.81326 12.1559C5.83893 12.0448 5.83404 11.9289 5.7991 11.8203C5.76416 11.7118 5.70048 11.6147 5.61482 11.5395L2.0906 8.46528C1.99638 8.3852 1.92803 8.27897 1.8942 8.16004C1.86038 8.0411 1.86259 7.91481 1.90056 7.79713C1.93853 7.67945 2.01056 7.57568 2.10752 7.49895C2.20449 7.42222 2.32203 7.37597 2.44529 7.36606L7.0906 6.9645C7.20393 6.95441 7.31236 6.91356 7.40419 6.84638C7.49602 6.77919 7.56777 6.68821 7.61169 6.58325L9.42654 2.25825C9.47501 2.14643 9.55512 2.05123 9.657 1.98435C9.75889 1.91747 9.8781 1.88184 9.99998 1.88184C10.1218 1.88184 10.2411 1.91747 10.3429 1.98435C10.4448 2.05123 10.5249 2.14643 10.5734 2.25825L12.3883 6.58325C12.4322 6.68821 12.5039 6.77919 12.5958 6.84638C12.6876 6.91356 12.796 6.95441 12.9094 6.9645L17.5547 7.36606C17.6779 7.37597 17.7955 7.42222 17.8924 7.49895C17.9894 7.57568 18.0614 7.67945 18.0994 7.79713C18.1374 7.91481 18.1396 8.0411 18.1057 8.16004C18.0719 8.27897 18.0036 8.3852 17.9094 8.46528L14.3851 11.5395Z" fill="#1C1C1C" fill-opacity="0.1"/>
<path d="M18.6875 7.60063C18.6118 7.36733 18.4692 7.16146 18.2773 7.00865C18.0855 6.85584 17.8529 6.76285 17.6086 6.74125L12.9688 6.34125L11.15 2.01625C11.0553 1.78931 10.8956 1.59546 10.691 1.45911C10.4863 1.32276 10.2459 1.25 10 1.25C9.75411 1.25 9.51371 1.32276 9.30907 1.45911C9.10443 1.59546 8.94471 1.78931 8.85002 2.01625L7.03674 6.34125L2.39142 6.74359C2.14614 6.76421 1.9124 6.85678 1.71952 7.0097C1.52663 7.16262 1.38319 7.36909 1.30718 7.60321C1.23117 7.83733 1.22598 8.08868 1.29225 8.32574C1.35852 8.5628 1.49331 8.77502 1.6797 8.93578L5.20392 12.0155L4.14767 16.5889C4.09182 16.8282 4.10776 17.0787 4.19349 17.309C4.27923 17.5394 4.43095 17.7393 4.6297 17.8839C4.82845 18.0284 5.0654 18.1112 5.31093 18.1218C5.55647 18.1324 5.79968 18.0704 6.01017 17.9436L9.99455 15.5217L13.9875 17.9436C14.198 18.0704 14.4412 18.1324 14.6868 18.1218C14.9323 18.1112 15.1692 18.0284 15.368 17.8839C15.5667 17.7393 15.7185 17.5394 15.8042 17.309C15.8899 17.0787 15.9059 16.8282 15.85 16.5889L14.7945 12.0108L18.318 8.93578C18.5044 8.77446 18.6389 8.56164 18.7046 8.32408C18.7704 8.08651 18.7644 7.83481 18.6875 7.60063ZM17.4985 7.99125L13.975 11.0662C13.8035 11.2154 13.676 11.4085 13.606 11.6248C13.5361 11.841 13.5265 12.0723 13.5781 12.2936L14.6367 16.8748L10.6469 14.453C10.4522 14.3344 10.2287 14.2717 10.0008 14.2717C9.77288 14.2717 9.54936 14.3344 9.3547 14.453L5.37033 16.8748L6.42189 12.2967C6.47357 12.0754 6.46393 11.8442 6.394 11.6279C6.32407 11.4116 6.1965 11.2185 6.02502 11.0694L2.50002 7.99594C2.49973 7.9936 2.49973 7.99124 2.50002 7.98891L7.14377 7.58734C7.37049 7.56736 7.58745 7.48585 7.77125 7.35162C7.95505 7.21738 8.09871 7.03551 8.18674 6.82563L10 2.50609L11.8125 6.82563C11.9005 7.03551 12.0442 7.21738 12.228 7.35162C12.4118 7.48585 12.6288 7.56736 12.8555 7.58734L17.5 7.98891C17.5 7.98891 17.5 7.99359 17.5 7.99438L17.4985 7.99125Z" fill="#1C1C1C"/>
</svg>
