<svg width="494" height="481" viewBox="0 0 494 481" fill="none" xmlns="http://www.w3.org/2000/svg">
<g clip-path="url(#clip0_22_687)">
<path d="M178.724 107.789H204.98V331.635C204.98 335.147 205.671 338.625 207.015 341.87C208.359 345.114 210.329 348.062 212.813 350.546C215.296 353.029 218.245 354.999 221.489 356.343C224.734 357.687 228.212 358.379 231.724 358.379H432.461V358.635C432.461 362.147 431.769 365.625 430.425 368.87C429.081 372.114 427.111 375.062 424.628 377.546C422.144 380.029 419.196 381.999 415.951 383.343C412.707 384.687 409.229 385.379 405.717 385.379H178.724C175.212 385.379 171.734 384.687 168.489 383.343C165.245 381.999 162.296 380.029 159.813 377.546C157.33 375.062 155.36 372.114 154.016 368.87C152.671 365.625 151.98 362.147 151.98 358.635V134.533C151.98 127.44 154.797 120.637 159.813 115.622C164.828 110.606 171.631 107.789 178.724 107.789Z" fill="#F2F2F2"/>
<path d="M252.737 77.3395C252.079 78.3363 251.212 79.1782 250.197 79.8072C249.181 80.4361 248.042 80.837 246.856 80.9821C245.671 81.1272 244.468 81.013 243.331 80.6476C242.194 80.2821 241.15 79.6739 240.271 78.8653L202.806 95.768L195.583 86.5547L240.227 66.8044C241.698 65.4263 243.624 64.6357 245.639 64.5825C247.654 64.5292 249.619 65.2171 251.161 66.5157C252.703 67.8143 253.715 69.6334 254.005 71.6283C254.296 73.6232 253.844 75.6552 252.737 77.3395Z" fill="#EDA0AB"/>
<path d="M91.9527 87.8791L88.237 108.935C88.0637 109.918 88.0976 110.925 88.3367 111.894C88.5759 112.862 89.0149 113.77 89.6255 114.559C90.2362 115.348 91.0051 116 91.8828 116.474C92.7604 116.948 93.7275 117.233 94.722 117.311L157.861 122.277L232.077 89.0611L223.213 72.2339L158.786 92.636L91.9527 87.8791Z" fill="#6C63FF"/>
<path d="M239.724 72.7886H466.717C481.487 72.7886 493.461 84.7623 493.461 99.5327V323.635C493.461 338.405 481.487 350.379 466.717 350.379H239.724C224.953 350.379 212.98 338.405 212.98 323.635V99.5327C212.98 84.7623 224.953 72.7886 239.724 72.7886Z" fill="#F2F2F2"/>
<path d="M466.717 78.2886C469.506 78.2886 472.269 78.8381 474.846 79.9057C477.424 80.9733 479.766 82.5381 481.739 84.5108C483.711 86.4835 485.276 88.8255 486.344 91.4029C487.411 93.9804 487.961 96.7429 487.961 99.5327V323.635C487.961 329.27 485.723 334.673 481.739 338.657C477.755 342.641 472.351 344.879 466.717 344.879H321.844C308.27 344.879 294.829 342.206 282.288 337.011C269.748 331.817 258.353 324.203 248.755 314.605C239.156 305.006 231.543 293.612 226.348 281.071C221.153 268.53 218.48 255.089 218.48 241.515V99.5327C218.48 96.7429 219.029 93.9804 220.097 91.4029C221.165 88.8255 222.729 86.4835 224.702 84.5108C226.675 82.5381 229.017 80.9733 231.594 79.9057C234.172 78.8381 236.934 78.2886 239.724 78.2886H466.717Z" fill="white"/>
<path d="M289.765 146.3H417.172C418.341 146.3 419.462 145.836 420.289 145.009C421.115 144.182 421.58 143.061 421.58 141.892C421.58 140.723 421.115 139.602 420.289 138.775C419.462 137.948 418.341 137.484 417.172 137.484H289.765C288.596 137.484 287.475 137.948 286.648 138.775C285.822 139.602 285.357 140.723 285.357 141.892C285.357 143.061 285.822 144.182 286.648 145.009C287.475 145.836 288.596 146.3 289.765 146.3Z" fill="#F2F2F2"/>
<path d="M289.765 240.3H417.172C418.341 240.3 419.462 239.836 420.289 239.009C421.115 238.182 421.58 237.061 421.58 235.892C421.58 234.723 421.115 233.602 420.289 232.775C419.462 231.948 418.341 231.484 417.172 231.484H289.765C288.596 231.484 287.475 231.948 286.648 232.775C285.822 233.602 285.357 234.723 285.357 235.892C285.357 237.061 285.822 238.182 286.648 239.009C287.475 239.836 288.596 240.3 289.765 240.3Z" fill="#F2F2F2"/>
<path d="M238.028 193.331H468.909C470.078 193.331 471.199 192.866 472.026 192.04C472.852 191.213 473.317 190.092 473.317 188.923C473.317 187.754 472.852 186.632 472.026 185.806C471.199 184.979 470.078 184.515 468.909 184.515H238.028C236.859 184.515 235.738 184.979 234.911 185.806C234.085 186.632 233.62 187.754 233.62 188.923C233.62 190.092 234.085 191.213 234.911 192.04C235.738 192.866 236.859 193.331 238.028 193.331Z" fill="#F2F2F2"/>
<path d="M99.9299 180.687L122.93 229.687L34.4529 220.726L52.9219 173.687L99.9299 180.687Z" fill="#FFABB7"/>
<path d="M79.3599 462.32L87.7489 462.249L91.4619 429.138L79.0819 429.243L79.3599 462.32Z" fill="#EDA0AB"/>
<path d="M106.23 475.659C106.238 476.654 105.85 477.611 105.153 478.32C104.456 479.029 103.506 479.433 102.512 479.443L85.8331 479.582L82.9133 473.663L81.8409 479.612L75.5477 479.669L77.1368 458.452L79.3263 458.307L88.2569 457.691L91.1381 457.498L91.1887 463.501L104.587 472.589C105.089 472.929 105.5 473.387 105.787 473.921C106.073 474.456 106.225 475.053 106.23 475.659Z" fill="#2F2E41"/>
<path d="M172.195 462.358L180.193 459.825L174.014 427.085L162.21 430.822L172.195 462.358Z" fill="#EDA0AB"/>
<path d="M201.798 467.214C202.098 468.162 202.008 469.19 201.551 470.073C201.093 470.956 200.303 471.621 199.356 471.922L183.454 476.956L178.924 472.156L179.647 478.158L173.648 480.061L168.933 459.314L170.983 458.531L179.339 455.319L182.036 454.288L183.849 460.011L199.325 464.761C199.905 464.939 200.433 465.256 200.864 465.683C201.295 466.11 201.615 466.635 201.798 467.214Z" fill="#2F2E41"/>
<path d="M38.4825 206.946L118.93 221.687C118.93 221.687 131.833 231.339 128.381 234.796C124.93 238.252 124.394 237.717 126.662 239.985C128.93 242.252 133.833 245.284 133.881 247.268C133.93 249.252 169.93 338.252 169.93 338.252C169.93 338.252 165.93 336.252 168.93 339.252C171.93 342.252 171.93 344.731 171.93 344.731L185.93 439.252L163.193 440.591L140.93 354.418L91.2704 273.914C91.2704 273.914 86.343 345.703 86.1364 350.478C85.9297 355.252 82.9297 349.252 85.9297 355.252C88.9297 361.252 90.9297 357.252 88.9297 361.252C86.9297 365.252 96.1344 446.687 96.1344 446.687H75.3814L30.8715 277.896C30.8715 277.896 15.0354 229.64 38.4825 206.946Z" fill="#2F2E41"/>
<path d="M62.1813 71.9347L94.4061 68.5864L102.755 79.4257L112.481 84.6059C116.597 86.7981 119.995 90.1295 122.267 94.2016C124.54 98.2738 125.591 102.914 125.296 107.568L113.93 173.687C113.93 173.687 123.531 195.306 116.93 200.687C110.329 206.068 122.033 219.394 107.93 212.687C93.826 205.98 32.9296 213.687 32.9296 213.687L45.9296 176.687L36.2182 140.33L35.1493 109.844C34.9496 104.148 36.6401 98.5451 39.9574 93.9097C43.2747 89.2742 48.0323 85.8665 53.4888 84.2176L54.8467 83.8073L62.1813 71.9347Z" fill="#6C63FF"/>
<path d="M17.8168 47.2303C17.6058 56.3133 21.0002 65.1083 25.8767 72.8333C27.3256 68.3235 29.9304 64.219 32.6469 60.3064C31.2775 68.7706 32.7361 77.4502 36.7969 85.0019C36.9401 85.1043 37.0883 85.1994 37.2411 85.2868C41.2159 87.6778 46.2553 88.6463 50.5552 86.9194C41.6709 77.3427 40.5403 61.4755 47.9888 50.7337C50.0976 47.6857 52.8249 44.99 54.131 41.5213C56.1933 35.9868 54.2109 29.8931 52.9603 24.1228C51.7909 18.7524 51.5862 12.3615 55.1892 8.4257C54.8044 7.87567 54.2802 7.43785 53.6704 7.1571C53.0606 6.87635 52.3872 6.76276 51.7191 6.82797C49.4977 7.14176 47.8807 9.07262 46.8508 11.0613C45.821 13.0499 45.1418 15.254 43.7065 16.9716C41.0487 20.1866 36.5224 20.9467 32.708 22.6411C23.4703 26.7557 18.0383 37.1234 17.8168 47.2303Z" fill="#2F2E41"/>
<path d="M255.81 479.658C255.811 479.815 255.78 479.97 255.72 480.114C255.661 480.259 255.573 480.39 255.463 480.501C255.352 480.611 255.221 480.699 255.076 480.759C254.931 480.818 254.776 480.849 254.62 480.848H1.33002C1.01441 480.848 0.711755 480.723 0.488586 480.5C0.265418 480.277 0.140015 479.974 0.140015 479.658C0.140015 479.343 0.265418 479.04 0.488586 478.817C0.711755 478.594 1.01441 478.468 1.33002 478.468H254.62C254.776 478.468 254.931 478.498 255.076 478.558C255.221 478.618 255.352 478.705 255.463 478.816C255.573 478.926 255.661 479.058 255.72 479.202C255.78 479.347 255.811 479.502 255.81 479.658Z" fill="black"/>
<path d="M15.8225 257.748C10.8519 257.748 6.82251 253.719 6.82251 248.748C6.82251 243.777 10.8519 239.748 15.8225 239.748C20.7931 239.748 24.8225 243.777 24.8225 248.748C24.8225 253.719 20.7931 257.748 15.8225 257.748Z" fill="#6C63FF"/>
<path d="M95.5748 42.037C95.0469 40.1894 98.6854 51.4833 96.9296 51.6872C88.933 52.6046 77.9558 57.3804 72.3862 59.6084C72.1354 59.5793 71.8845 59.5501 71.6411 59.5137C71.0435 59.4482 70.4608 59.3536 69.8854 59.2444C56.9167 56.7906 51.9296 36.8692 51.9296 36.6872C51.9296 35.7917 54.0791 11.1942 57.465 10.8302C58.3544 10.7337 59.2483 10.6851 60.1428 10.6846H68.5452C70.2839 10.3099 72.0461 10.0545 73.8197 9.9201H73.8344C90.7497 8.63133 104.087 18.9413 102.841 31.4867C102.833 31.5012 102.818 31.5158 102.811 31.5304C102.45 32.0692 102.132 32.5789 101.852 33.0667C101.579 33.5254 101.35 33.9623 101.151 34.3773C99.6095 37.581 103.573 41.6123 100.945 42.3647C97.4496 43.3655 110.137 76.2582 96.3029 76.2582C103.032 78.1714 97.031 47.1338 95.5748 42.037Z" fill="#2F2E41"/>
<path d="M80.4746 61.3369C69.4877 61.3369 60.5811 52.4303 60.5811 41.4434C60.5811 30.4564 69.4877 21.5498 80.4746 21.5498C91.4615 21.5498 100.368 30.4564 100.368 41.4434C100.368 52.4303 91.4615 61.3369 80.4746 61.3369Z" fill="#FFABB7"/>
<path d="M102.841 32.5715C102.509 32.7463 102.184 32.9064 101.852 33.0666C101.505 33.2341 101.159 33.4016 100.812 33.5544C94.1505 36.5761 88.7285 36.911 85.4384 32.5715C85.3502 30.2881 84.8375 28.0412 83.9261 25.9457C84.0871 28.2874 83.4698 30.6167 82.1704 32.5715H75.5459C68.7222 37.1003 65.2182 37.5736 69.9542 52.4416C71.2747 56.5846 76.5251 80.6923 74.4596 84.2674C73.8621 84.2018 67.5051 57.7964 66.9297 57.6872C53.961 55.2335 45.721 33.8675 46.7759 32.6589C46.7707 29.2218 47.561 25.8301 49.0849 22.7493C51.0127 18.8461 54.0181 15.5766 57.7454 13.3276C59.9671 12.2503 62.2835 11.3801 64.665 10.7282C64.724 10.7136 64.7757 10.699 64.8347 10.6845C65.565 10.4879 66.31 10.3059 67.0551 10.153C68.5943 9.82796 70.151 9.59215 71.7173 9.44672C71.828 9.43943 71.9386 9.43213 72.0419 9.43213C72.6673 9.43359 73.2811 9.60201 73.8197 9.92C73.8271 9.92 73.8271 9.92725 73.8345 9.92725C74.2194 10.1522 74.5554 10.4517 74.823 10.8082C75.2941 11.4082 75.5489 12.1497 75.546 12.9125H82.9229C83.1958 12.9125 83.4688 12.9198 83.7417 12.9343C88.6652 13.1026 93.3486 15.102 96.8756 18.5414C100.403 21.9808 102.519 26.6126 102.811 31.5303C102.833 31.8798 102.841 32.222 102.841 32.5715Z" fill="#2F2E41"/>
<path d="M59.3442 26.212C52.106 26.212 46.2382 20.3442 46.2382 13.106C46.2382 5.86775 52.106 0 59.3442 0C66.5824 0 72.4502 5.86775 72.4502 13.106C72.4502 20.3442 66.5824 26.212 59.3442 26.212Z" fill="#2F2E41"/>
<path d="M15.7215 252.459C15.0819 251.45 14.669 250.315 14.5114 249.131C14.3538 247.947 14.4552 246.743 14.8087 245.602C15.1621 244.461 15.7591 243.411 16.5585 242.524C17.3578 241.636 18.3404 240.933 19.4383 240.463L19.3734 199.361L30.7376 196.548L30.4577 245.366C31.1119 247.272 31.0439 249.353 30.2666 251.213C29.4893 253.073 28.0567 254.583 26.2403 255.458C24.4238 256.332 22.3498 256.51 20.4111 255.957C18.4724 255.404 16.8038 254.16 15.7215 252.459Z" fill="#EDA0AB"/>
<path d="M71.9976 101.477L54.3133 89.4589C53.4883 88.8982 52.5551 88.5162 51.5737 88.3375C50.5924 88.1587 49.5845 88.1872 48.6147 88.421C47.645 88.6548 46.7349 89.0888 45.9428 89.6951C45.1507 90.3014 44.4941 91.0667 44.0153 91.9417L13.6116 147.5L13.4954 228.811L32.4774 227.621L40.2696 160.492L71.9976 101.477Z" fill="#6C63FF"/>
<path d="M207.815 285.877H396.815C400.926 285.877 404.869 287.51 407.776 290.417C410.682 293.324 412.315 297.267 412.315 301.377C412.315 305.488 410.682 309.431 407.776 312.338C404.869 315.244 400.926 316.877 396.815 316.877H207.815C203.705 316.877 199.762 315.244 196.855 312.338C193.948 309.431 192.315 305.488 192.315 301.377C192.315 297.267 193.948 293.324 196.855 290.417C199.762 287.51 203.705 285.877 207.815 285.877Z" fill="white"/>
<path d="M207.815 317.877H396.815C401.192 317.877 405.388 316.139 408.483 313.045C411.577 309.95 413.315 305.754 413.315 301.377C413.315 297.001 411.577 292.805 408.483 289.71C405.388 286.616 401.192 284.877 396.815 284.877H207.815C203.439 284.877 199.243 286.616 196.148 289.71C193.054 292.805 191.315 297.001 191.315 301.377C191.315 305.754 193.054 309.95 196.148 313.045C199.243 316.139 203.439 317.877 207.815 317.877ZM396.815 286.877C400.661 286.877 404.349 288.405 407.068 291.124C409.788 293.844 411.315 297.532 411.315 301.377C411.315 305.223 409.788 308.911 407.068 311.63C404.349 314.35 400.661 315.877 396.815 315.877H207.815C203.97 315.877 200.282 314.35 197.562 311.63C194.843 308.911 193.315 305.223 193.315 301.377C193.315 297.532 194.843 293.844 197.562 291.124C200.282 288.405 203.97 286.877 207.815 286.877H396.815Z" fill="#6C63FF"/>
<path d="M196.671 353.52H280.077C281.246 353.52 282.367 353.056 283.194 352.229C284.021 351.402 284.485 350.281 284.485 349.112C284.485 347.943 284.021 346.822 283.194 345.995C282.367 345.169 281.246 344.704 280.077 344.704H196.671C195.502 344.704 194.38 345.169 193.554 345.995C192.727 346.822 192.263 347.943 192.263 349.112C192.263 350.281 192.727 351.402 193.554 352.229C194.38 353.056 195.502 353.52 196.671 353.52Z" fill="#6C63FF"/>
</g>
<defs>
<clipPath id="clip0_22_687">
<rect width="493.461" height="480.848" fill="white" transform="matrix(-1 0 0 1 493.461 0)"/>
</clipPath>
</defs>
</svg>
