<svg width="567" height="500" viewBox="0 0 567 500" fill="none" xmlns="http://www.w3.org/2000/svg">
<g clip-path="url(#clip0_22_955)">
<path d="M438.48 320.309C438 319.481 437.708 318.557 437.623 317.603C437.539 316.649 437.665 315.689 437.992 314.789C438.319 313.889 438.839 313.072 439.516 312.395C440.193 311.718 441.011 311.198 441.911 310.871L441.573 287.6L451.765 294.111L450.523 315.211C450.972 316.759 450.837 318.419 450.145 319.874C449.453 321.33 448.25 322.481 446.766 323.109C445.281 323.738 443.618 323.8 442.091 323.284C440.564 322.767 439.279 321.709 438.48 320.309Z" fill="#FFABB7"/>
<path d="M426.197 193.965C423.176 194.499 420.433 196.063 418.436 198.392C416.439 200.721 415.31 203.67 415.243 206.737C415.095 213.548 417.368 216.087 420.58 217.005C426.517 218.701 435.973 253.009 435.973 253.009C435.973 253.009 436.977 285.008 438.595 283.428C440.214 281.848 438.382 285.535 438.874 286.66C439.366 287.785 436.542 289.47 439.227 290.748C441.911 292.026 440.214 302.205 440.214 302.205L452.089 301.356C452.089 301.356 450.117 293.065 452.799 292.546C455.482 292.026 454.263 289.667 453.176 287.878C452.089 286.089 455.099 283.539 453.594 282.694C452.089 281.848 456.33 248.768 456.33 248.768L439.749 199.98C438.345 197.742 436.306 195.974 433.891 194.903C431.477 193.831 428.798 193.504 426.197 193.965Z" fill="#4593E2"/>
<path d="M390.171 195.885L398.713 180.913H410.253L418.909 196.733L390.171 195.885Z" fill="#4593E2"/>
<path d="M367.194 61.2448C360.369 38.3822 341.086 23.4568 317.786 20.1826C317.529 20.1464 317.286 20.1942 317.031 20.1777C316.701 20.0769 316.364 19.9993 316.024 19.9457C283.98 15.8044 249.001 23.2214 221.161 40.6407C194.474 57.3379 163.811 66.7592 132.333 66.5499C131.355 66.5434 130.374 66.5646 129.388 66.6135C105.163 67.8223 83.784 85.4565 77.2349 108.651C76.3754 111.694 77.8731 114.413 80.2815 116.137C84.5135 119.168 87.4042 121.293 92.611 122.396C101.902 124.364 111.224 126.174 120.578 127.825V90.565C120.582 87.0376 121.985 83.6558 124.48 81.1615C126.974 78.6672 130.356 77.2641 133.883 77.26H316.644C320.171 77.2641 323.553 78.6672 326.047 81.1615C328.541 83.6558 329.944 87.0376 329.949 90.565V136.968C332.455 136.184 334.902 135.221 337.271 134.085C346.087 129.731 353.619 123.158 359.127 115.012C369.708 99.6594 372.503 79.0261 367.194 61.2448Z" fill="#F2F2F2"/>
<path d="M290.244 279.304H128.682C124.954 279.299 121.38 277.816 118.743 275.18C116.107 272.544 114.624 268.969 114.62 265.241V202.551C94.9417 196.527 74.2163 194.71 53.7903 197.219C53.4495 197.272 53.1129 197.35 52.783 197.451C52.5278 197.467 52.2845 197.42 52.0282 197.456C28.7278 200.73 9.4451 215.655 2.61971 238.518C-2.68908 256.299 0.105559 276.933 10.6865 292.285C16.1946 300.431 23.7268 307.004 32.5432 311.359C44.6617 317.196 57.4169 317.635 70.6436 318.047C110.356 319.286 150.107 317.784 189.613 313.55C209.054 311.465 228.415 308.74 247.696 305.375C257.564 303.648 267.4 301.746 277.203 299.669C282.41 298.566 285.3 296.442 289.532 293.411C291.941 291.686 293.438 288.967 292.579 285.924C291.94 283.67 291.161 281.459 290.244 279.304Z" fill="#F2F2F2"/>
<path d="M304.542 260.705H145.984C142.924 260.702 139.99 259.484 137.826 257.32C135.662 255.156 134.445 252.222 134.441 249.162V101.811C134.445 98.7504 135.662 95.8164 137.826 93.6524C139.99 91.4884 142.924 90.2711 145.984 90.2676H304.542C307.603 90.2711 310.537 91.4884 312.701 93.6524C314.865 95.8164 316.082 98.7504 316.086 101.811V249.162C316.082 252.222 314.865 255.156 312.701 257.32C310.537 259.484 307.603 260.702 304.542 260.705Z" fill="#E6E6E6"/>
<path d="M271.171 252.919H153.772C150.712 252.916 147.778 251.698 145.614 249.535C143.45 247.371 142.233 244.437 142.229 241.376V109.603C142.233 106.543 143.45 103.609 145.614 101.445C147.778 99.2809 150.712 98.0636 153.772 98.0601H296.757C299.817 98.0636 302.751 99.2809 304.915 101.445C307.079 103.609 308.296 106.543 308.3 109.603V215.79C308.289 225.634 304.373 235.072 297.413 242.032C290.452 248.993 281.014 252.908 271.171 252.919Z" fill="white"/>
<path d="M225.264 227.23C253.84 227.23 277.004 204.065 277.004 175.49C277.004 146.914 253.84 123.75 225.264 123.75C196.689 123.75 173.524 146.914 173.524 175.49C173.524 204.065 196.689 227.23 225.264 227.23Z" fill="#4593E2"/>
<path d="M227.87 197.283L248.866 180.017C249.436 179.549 249.897 178.962 250.217 178.298C250.538 177.634 250.71 176.908 250.722 176.171C250.734 175.433 250.586 174.702 250.288 174.028C249.99 173.353 249.548 172.752 248.995 172.265L227.998 153.801C226.984 152.911 225.659 152.461 224.313 152.548C222.967 152.635 221.711 153.253 220.82 154.266C219.93 155.278 219.477 156.603 219.563 157.949C219.648 159.295 220.265 160.552 221.277 161.444L232.14 170.997L204.9 170.997C203.55 170.997 202.256 171.534 201.301 172.488C200.347 173.442 199.811 174.737 199.811 176.087C199.811 177.436 200.347 178.731 201.301 179.685C202.256 180.64 203.55 181.176 204.9 181.176L231.432 181.176L221.405 189.422C220.362 190.279 219.703 191.515 219.572 192.859C219.441 194.202 219.849 195.542 220.707 196.585C221.564 197.627 222.8 198.287 224.144 198.418C225.487 198.549 226.827 198.14 227.87 197.283Z" fill="white"/>
<path d="M448.232 490.533L440.557 490.532L436.905 460.924L448.235 460.925L448.232 490.533Z" fill="#FFABB7"/>
<path d="M448.503 498.54L424.898 498.539V498.24C424.898 495.804 425.866 493.467 427.589 491.744C429.312 490.021 431.649 489.053 434.086 489.053L438.398 485.782L446.443 489.053L448.503 489.053L448.503 498.54Z" fill="#2F2E41"/>
<path d="M390.555 490.533L382.879 490.532L379.228 460.924L390.557 460.925L390.555 490.533Z" fill="#FFABB7"/>
<path d="M390.826 498.54L367.221 498.539V498.24C367.221 495.804 368.189 493.467 369.912 491.744C371.635 490.021 373.972 489.053 376.409 489.053L380.721 485.782L388.766 489.053L390.826 489.053L390.826 498.54Z" fill="#2F2E41"/>
<path d="M450.68 466.028C453.481 464.198 451.858 464.316 451.858 464.316C451.858 464.316 445.596 413.543 440.832 398.157L435.318 323.23C435.318 323.23 434.968 324.725 435.318 321.092C435.668 317.459 438.213 320.004 435.668 317.459C433.124 314.915 431.427 313.618 433.124 311.722C434.82 309.826 439.5 305.989 436.736 303.667C433.972 301.344 428.533 286.195 428.533 286.195L375.521 286.619L377.641 286.195C377.641 286.195 371.024 283.74 374.055 286.937C377.086 290.135 372.358 297.964 370.662 305.598C369.257 311.92 365.086 313.598 370.662 314.928C376.238 316.258 371.192 320.026 371.192 320.026C371.192 320.026 362.798 359.988 369.159 386.282C369.159 386.282 373.548 451.315 375.769 456.908C377.991 462.501 378.839 459.108 377.991 462.501C377.143 465.894 375.446 459.957 377.143 465.894C378.069 468.995 378.801 472.151 379.337 475.343L390.841 474.495C390.841 474.495 393.512 466.074 390.841 463.864C388.169 461.653 390.014 468.105 392.909 463.182C395.803 458.26 392.41 459.957 391.562 453.171C390.714 446.385 398.496 414.775 392.909 395.38L403.234 340.957L419.627 397.309C419.627 397.309 428.322 466.132 431.147 468.557C433.972 470.983 432.831 465.095 433.972 470.983C435.125 476.933 437.744 475.356 437.67 476.085C436.88 483.865 450.68 476.191 450.68 476.191C450.545 474.214 450.545 472.231 450.68 470.254C450.936 468.439 447.88 467.858 450.68 466.028Z" fill="#2F2E41"/>
<path d="M380.84 303.901C377.448 303.901 368.117 299.306 369.814 297.363C371.51 295.419 371.51 288.968 371.51 287.104C371.51 285.241 379.144 216.537 379.144 216.537L378.564 199.715C378.529 198.707 378.698 197.702 379.06 196.76C379.421 195.818 379.969 194.959 380.67 194.233C381.371 193.508 382.211 192.931 383.14 192.536C384.069 192.142 385.067 191.939 386.076 191.939L393.563 189.395L414.768 188.546L425.342 191.939C426.391 191.939 427.423 192.208 428.338 192.721C429.254 193.234 430.022 193.973 430.57 194.868C431.118 195.762 431.427 196.783 431.467 197.831C431.508 198.879 431.279 199.921 430.802 200.855C436.413 210.016 439.229 220.614 438.905 231.352C438.662 239.385 434.592 249.196 433.611 258.272C433.525 259.069 433.462 259.86 433.429 260.643C433.419 260.862 431.683 261.951 433.404 261.297C435.125 260.643 432.482 262.951 433.379 264.341C434.277 265.732 436.016 264.88 433.45 266.578C430.884 268.277 436.531 284.683 435.973 285.241C434.277 286.937 430.884 287.785 433.429 290.33C435.973 292.875 438.518 291.178 435.125 294.571C431.732 297.964 421.567 303.901 421.567 303.901L380.84 303.901Z" fill="#0A66C2"/>
<path d="M403.516 178.697C413.599 178.697 421.772 170.523 421.772 160.441C421.772 150.358 413.599 142.185 403.516 142.185C393.434 142.185 385.26 150.358 385.26 160.441C385.26 170.523 393.434 178.697 403.516 178.697Z" fill="#FFABB7"/>
<path d="M292.326 217.083C293.202 216.696 294.151 216.506 295.109 216.525C296.066 216.545 297.007 216.774 297.866 217.197C298.725 217.62 299.481 218.226 300.081 218.973C300.68 219.719 301.108 220.588 301.336 221.518L324.506 223.71L316.927 233.135L296.086 229.608C294.498 229.887 292.863 229.573 291.491 228.726C290.12 227.88 289.106 226.56 288.642 225.016C288.179 223.472 288.298 221.812 288.977 220.35C289.656 218.887 290.847 217.725 292.326 217.083Z" fill="#FFABB7"/>
<path d="M402.184 203.493C401.65 200.472 400.086 197.73 397.757 195.732C395.428 193.735 392.479 192.607 389.412 192.54C382.601 192.392 380.062 194.665 379.144 197.876C377.448 203.814 350.138 224.685 350.138 224.685L326.685 222.147C325.274 221.688 325.943 220.404 320.641 221.492C318.029 219.782 316.34 220.072 314.886 220.87L306.199 219.93L307.047 233.501C307.047 233.501 316.346 231.289 318.074 235.197C319.801 239.106 319.406 239.667 323.163 236.894C326.92 234.12 326.556 236.894 326.556 236.894L353.698 243.679L396.168 217.045C398.406 215.642 400.174 213.602 401.246 211.188C402.318 208.774 402.644 206.094 402.184 203.493Z" fill="#4593E2"/>
<path d="M410.604 176.739L411.8 177.121C408.059 177.435 401.392 179.522 402.045 178.368C402.698 177.214 400.23 172.863 401.435 172.312C402.687 171.873 403.803 171.116 404.675 170.115C405.438 169.046 405.421 167.282 404.276 166.629C403.165 165.984 401.791 166.68 400.688 167.333C399.577 167.978 397.524 158.495 398.05 155.535C394.954 153.838 391.205 157.087 387.728 156.451C385.599 156.06 384.064 154.313 383.097 152.328C384.676 150.83 385.852 148.957 386.515 146.883C385.039 147.627 383.461 148.15 381.833 148.435C381.541 146.895 381.581 145.31 381.952 143.787C382.236 142.571 382.815 141.444 383.64 140.506C384.464 139.568 385.507 138.848 386.676 138.409C387.862 138.016 389.147 138.039 390.319 138.473C391.491 138.908 392.48 139.729 393.122 140.801C393.194 139.647 392.898 138.499 392.276 137.524C391.654 136.548 390.739 135.795 389.662 135.373C390.448 134.965 391.317 134.744 392.203 134.728C393.088 134.712 393.965 134.9 394.766 135.279C395.566 135.657 396.268 136.215 396.818 136.91C397.367 137.605 397.748 138.417 397.932 139.283C401.762 137.363 406.157 136.894 410.307 137.96C414.412 139.037 419.857 143.592 419.857 143.592C429.12 145.636 428.679 180.853 410.604 176.739Z" fill="#2F2E41"/>
<path d="M507.32 491.261C507.532 491.271 507.741 491.215 507.92 491.102C508.098 490.989 508.238 490.823 508.32 490.628C508.401 490.433 508.421 490.218 508.376 490.011C508.331 489.804 508.224 489.616 508.068 489.473L507.997 489.192L508.026 489.124C508.238 488.621 508.595 488.193 509.051 487.892C509.507 487.591 510.041 487.432 510.587 487.434C511.133 487.436 511.667 487.599 512.12 487.903C512.574 488.207 512.927 488.639 513.136 489.143C513.972 491.156 515.037 493.173 515.299 495.302C515.414 496.243 515.365 497.196 515.155 498.121C517.118 493.838 518.138 489.183 518.144 484.472C518.145 483.29 518.079 482.108 517.947 480.933C517.839 479.97 517.688 479.014 517.495 478.064C516.443 472.913 514.183 468.084 510.903 463.975C509.315 463.109 508.031 461.776 507.223 460.158C506.931 459.576 506.724 458.955 506.61 458.314C506.957 457.396 507.14 456.423 507.15 455.442C507.399 455.063 507.846 454.875 508.119 454.505C509.475 452.667 511.343 452.988 512.318 455.486C514.401 456.537 514.422 458.281 513.143 459.958C512.33 461.025 512.218 462.469 511.505 463.611C511.578 463.705 511.654 463.796 511.728 463.89C513.07 465.616 514.24 467.469 515.22 469.422C514.982 467.234 515.266 465.019 516.05 462.962C516.845 461.045 518.335 459.43 519.647 457.772C519.994 457.327 520.465 456.995 521.001 456.817C521.537 456.64 522.113 456.625 522.657 456.775C523.202 456.925 523.689 457.233 524.058 457.66C524.428 458.087 524.662 458.614 524.732 459.174L524.739 459.247C524.545 459.357 524.354 459.474 524.167 459.597C523.933 459.754 523.751 459.978 523.646 460.24C523.541 460.501 523.517 460.789 523.578 461.064C523.639 461.339 523.782 461.59 523.988 461.782C524.194 461.975 524.453 462.101 524.732 462.144L524.76 462.149C524.691 462.851 524.568 463.547 524.393 464.231C526.076 470.739 522.443 473.11 517.254 473.216C517.14 473.275 517.028 473.334 516.914 473.39C517.899 476.181 518.517 479.089 518.752 482.04C518.885 483.782 518.877 485.531 518.728 487.27L518.737 487.209C519.113 485.274 520.145 483.528 521.659 482.267C523.908 480.42 527.084 479.739 529.51 478.255C529.768 478.089 530.068 478.001 530.374 478C530.68 477.999 530.98 478.086 531.239 478.25C531.498 478.415 531.704 478.65 531.833 478.927C531.963 479.205 532.01 479.514 531.97 479.817L531.96 479.882C531.599 480.029 531.247 480.199 530.906 480.39C530.711 480.5 530.521 480.617 530.334 480.74C530.099 480.897 529.918 481.121 529.813 481.382C529.708 481.644 529.684 481.931 529.745 482.207C529.806 482.482 529.949 482.732 530.154 482.925C530.36 483.118 530.619 483.244 530.898 483.287L530.927 483.291L530.985 483.3C530.368 484.775 529.5 486.133 528.422 487.314C527.37 492.996 522.85 493.535 518.015 491.881H518.012C517.481 494.186 516.713 496.43 515.719 498.576H507.526C507.496 498.485 507.47 498.391 507.443 498.3C508.202 498.348 508.963 498.302 509.71 498.165C509.103 497.419 508.495 496.667 507.887 495.921C507.873 495.907 507.861 495.893 507.849 495.877C507.54 495.496 507.229 495.117 506.921 494.735C506.904 493.565 507.039 492.397 507.32 491.261Z" fill="#F2F2F2"/>
<path d="M234.551 499.74L565.115 500C565.383 500 565.64 499.894 565.829 499.704C566.019 499.515 566.125 499.258 566.125 498.99C566.125 498.722 566.019 498.466 565.829 498.276C565.64 498.087 565.383 497.98 565.115 497.98L234.551 497.72C234.283 497.72 234.026 497.826 233.837 498.015C233.647 498.205 233.541 498.462 233.541 498.73C233.541 498.998 233.647 499.254 233.837 499.444C234.026 499.633 234.283 499.74 234.551 499.74Z" fill="#CACACA"/>
<path d="M217.663 358.186C215.29 358.186 212.97 357.482 210.997 356.164C209.024 354.845 207.486 352.972 206.578 350.779C205.67 348.587 205.432 346.174 205.895 343.847C206.358 341.52 207.501 339.382 209.179 337.704C210.857 336.026 212.995 334.883 215.322 334.42C217.649 333.957 220.062 334.195 222.254 335.103C224.447 336.011 226.32 337.549 227.639 339.522C228.957 341.495 229.661 343.815 229.661 346.188C229.657 349.369 228.392 352.418 226.143 354.668C223.893 356.917 220.844 358.182 217.663 358.186ZM217.663 335.886C215.625 335.886 213.634 336.49 211.939 337.622C210.245 338.754 208.925 340.363 208.145 342.245C207.365 344.128 207.161 346.199 207.559 348.197C207.956 350.196 208.938 352.031 210.378 353.472C211.819 354.913 213.655 355.894 215.653 356.292C217.651 356.689 219.723 356.485 221.605 355.705C223.487 354.926 225.096 353.605 226.228 351.911C227.36 350.217 227.965 348.225 227.965 346.188C227.961 343.456 226.875 340.838 224.944 338.907C223.013 336.975 220.394 335.889 217.663 335.886Z" fill="#F2F2F2"/>
<path d="M222.36 345.627L218.639 341.102C218.538 340.979 218.412 340.88 218.268 340.811C218.125 340.742 217.969 340.704 217.81 340.702C217.651 340.699 217.493 340.731 217.348 340.795C217.203 340.86 217.073 340.955 216.968 341.074L212.989 345.599C212.799 345.818 212.703 346.103 212.722 346.392C212.742 346.681 212.875 346.951 213.092 347.142C213.31 347.333 213.595 347.431 213.884 347.413C214.173 347.395 214.444 347.264 214.636 347.047L216.695 344.706V350.577C216.695 350.868 216.811 351.146 217.016 351.352C217.222 351.558 217.501 351.673 217.792 351.673C218.083 351.673 218.362 351.558 218.567 351.352C218.773 351.146 218.888 350.868 218.888 350.577V344.859L220.665 347.02C220.85 347.244 221.117 347.386 221.406 347.415C221.696 347.443 221.984 347.355 222.209 347.17C222.434 346.985 222.576 346.719 222.604 346.43C222.632 346.14 222.544 345.851 222.36 345.627Z" fill="#F2F2F2"/>
<path d="M354.222 180.913C351.849 180.913 349.53 180.209 347.557 178.891C345.584 177.572 344.046 175.699 343.138 173.506C342.229 171.314 341.992 168.901 342.455 166.574C342.918 164.247 344.06 162.109 345.738 160.431C347.416 158.753 349.554 157.61 351.882 157.147C354.209 156.684 356.622 156.922 358.814 157.83C361.006 158.738 362.88 160.276 364.199 162.249C365.517 164.222 366.221 166.542 366.221 168.915C366.217 172.096 364.952 175.145 362.702 177.395C360.453 179.644 357.403 180.909 354.222 180.913ZM354.222 158.613C352.185 158.613 350.193 159.217 348.499 160.349C346.805 161.481 345.485 163.09 344.705 164.972C343.925 166.855 343.721 168.926 344.119 170.924C344.516 172.923 345.497 174.758 346.938 176.199C348.379 177.64 350.214 178.621 352.213 179.019C354.211 179.416 356.282 179.212 358.165 178.432C360.047 177.653 361.656 176.332 362.788 174.638C363.92 172.944 364.524 170.952 364.524 168.915C364.521 166.183 363.435 163.565 361.504 161.634C359.572 159.702 356.954 158.616 354.222 158.613Z" fill="#F2F2F2"/>
<path d="M358.919 168.354L355.199 163.829C355.098 163.706 354.971 163.607 354.828 163.538C354.685 163.469 354.528 163.431 354.37 163.429C354.211 163.426 354.053 163.458 353.908 163.522C353.762 163.587 353.633 163.682 353.528 163.801L349.549 168.326C349.359 168.545 349.263 168.83 349.282 169.119C349.301 169.408 349.435 169.678 349.652 169.869C349.87 170.061 350.154 170.158 350.444 170.14C350.733 170.123 351.003 169.991 351.196 169.774L353.255 167.433V173.304C353.255 173.595 353.37 173.874 353.576 174.079C353.782 174.285 354.061 174.4 354.351 174.4C354.642 174.4 354.921 174.285 355.127 174.079C355.333 173.874 355.448 173.595 355.448 173.304V167.586L357.225 169.747C357.41 169.971 357.676 170.114 357.966 170.142C358.255 170.17 358.544 170.082 358.769 169.897C358.993 169.713 359.136 169.446 359.164 169.157C359.192 168.867 359.104 168.578 358.919 168.354Z" fill="#F2F2F2"/>
<path d="M83.6476 170.735C81.2746 170.735 78.9549 170.031 76.9818 168.713C75.0087 167.394 73.4708 165.52 72.5627 163.328C71.6546 161.136 71.417 158.723 71.88 156.396C72.3429 154.068 73.4856 151.93 75.1636 150.252C76.8416 148.574 78.9794 147.432 81.3069 146.969C83.6343 146.506 86.0467 146.743 88.2391 147.652C90.4315 148.56 92.3053 150.098 93.6237 152.071C94.9421 154.044 95.6458 156.363 95.6458 158.736C95.6421 161.917 94.3769 164.967 92.1276 167.216C89.8783 169.466 86.8286 170.731 83.6476 170.735ZM83.6476 148.435C81.6101 148.435 79.6183 149.039 77.9242 150.171C76.2301 151.303 74.9097 152.912 74.13 154.794C73.3503 156.677 73.1463 158.748 73.5438 160.746C73.9413 162.745 74.9224 164.58 76.3631 166.021C77.8039 167.462 79.6395 168.443 81.6378 168.84C83.6362 169.238 85.7075 169.034 87.5899 168.254C89.4723 167.474 91.0812 166.154 92.2132 164.46C93.3452 162.766 93.9494 160.774 93.9494 158.736C93.9463 156.005 92.86 153.387 90.9287 151.455C88.9974 149.524 86.3789 148.438 83.6476 148.435Z" fill="#F2F2F2"/>
<path d="M88.3446 158.175L84.6237 153.65C84.5228 153.527 84.3964 153.428 84.2532 153.359C84.1101 153.29 83.9537 153.253 83.7948 153.25C83.6359 153.248 83.4783 153.279 83.333 153.344C83.1876 153.408 83.058 153.503 82.953 153.622L78.974 158.147C78.7838 158.366 78.6879 158.651 78.7073 158.94C78.7267 159.229 78.8597 159.499 79.0773 159.69C79.295 159.882 79.5795 159.979 79.8688 159.962C80.1581 159.944 80.4286 159.812 80.6212 159.596L82.6799 157.255V163.125C82.6799 163.416 82.7954 163.695 83.0011 163.9C83.2068 164.106 83.4857 164.222 83.7766 164.222C84.0675 164.222 84.3464 164.106 84.5521 163.9C84.7577 163.695 84.8733 163.416 84.8733 163.125V157.407L86.6503 159.568C86.8351 159.793 87.1015 159.935 87.391 159.963C87.6805 159.991 87.9694 159.903 88.194 159.719C88.4187 159.534 88.5608 159.267 88.589 158.978C88.6172 158.688 88.5293 158.399 88.3446 158.175Z" fill="#F2F2F2"/>
<path d="M179.494 23.9964C177.121 23.9964 174.801 23.2927 172.828 21.9743C170.855 20.6559 169.317 18.7821 168.409 16.5897C167.501 14.3973 167.263 11.9849 167.726 9.65746C168.189 7.33004 169.332 5.19217 171.01 3.51419C172.688 1.83622 174.826 0.693503 177.153 0.23055C179.481 -0.232403 181.893 0.00519033 184.085 0.913304C186.278 1.82142 188.152 3.35926 189.47 5.33235C190.788 7.30544 191.492 9.62517 191.492 11.9982C191.488 15.1792 190.223 18.2289 187.974 20.4782C185.725 22.7275 182.675 23.9927 179.494 23.9964ZM179.494 1.69641C177.456 1.69641 175.465 2.3006 173.77 3.43258C172.076 4.56455 170.756 6.17346 169.976 8.05587C169.197 9.93828 168.993 12.0096 169.39 14.008C169.788 16.0063 170.769 17.8419 172.209 19.2827C173.65 20.7234 175.486 21.7045 177.484 22.102C179.482 22.4995 181.554 22.2955 183.436 21.5158C185.319 20.7361 186.927 19.4157 188.059 17.7215C189.191 16.0274 189.796 14.0357 189.796 11.9982C189.793 9.26691 188.706 6.64837 186.775 4.71707C184.844 2.78576 182.225 1.69944 179.494 1.69641Z" fill="#F2F2F2"/>
<path d="M184.191 11.437L180.47 6.91229C180.369 6.78956 180.243 6.69022 180.099 6.62116C179.956 6.55211 179.8 6.51499 179.641 6.51236C179.482 6.50973 179.325 6.54165 179.179 6.60593C179.034 6.67021 178.904 6.7653 178.799 6.88462L174.82 11.4094C174.63 11.6281 174.534 11.9132 174.554 12.2023C174.573 12.4915 174.706 12.7612 174.924 12.9526C175.141 13.144 175.426 13.2415 175.715 13.2238C176.004 13.206 176.275 13.0745 176.467 12.8579L178.526 10.5169V16.3872C178.526 16.678 178.642 16.957 178.847 17.1627C179.053 17.3683 179.332 17.4839 179.623 17.4839C179.914 17.4839 180.193 17.3683 180.398 17.1627C180.604 16.957 180.72 16.678 180.72 16.3872V10.6694L182.497 12.8303C182.681 13.055 182.948 13.197 183.237 13.2252C183.527 13.2535 183.816 13.1655 184.04 12.9808C184.265 12.796 184.407 12.5296 184.435 12.2401C184.463 11.9506 184.376 11.6617 184.191 11.437Z" fill="#F2F2F2"/>
<path d="M51.4161 259.795C49.0431 259.795 46.7233 259.091 44.7501 257.773C42.7769 256.455 41.2391 254.581 40.3309 252.388C39.4227 250.196 39.1851 247.783 39.6481 245.456C40.111 243.129 41.2538 240.991 42.9318 239.313C44.6098 237.635 46.7477 236.492 49.0752 236.029C51.4027 235.566 53.8152 235.804 56.0076 236.712C58.2 237.62 60.0739 239.158 61.3923 241.131C62.7107 243.104 63.4143 245.424 63.4143 247.797C63.4107 250.978 62.1455 254.028 59.8961 256.277C57.6468 258.526 54.5971 259.791 51.4161 259.795ZM51.4161 237.495C49.3786 237.495 47.3868 238.099 45.6926 239.231C43.9985 240.363 42.678 241.972 41.8982 243.854C41.1184 245.737 40.9144 247.808 41.3119 249.806C41.7093 251.805 42.6904 253.64 44.1312 255.081C45.5719 256.522 47.4075 257.503 49.4059 257.901C51.4043 258.298 53.4757 258.094 55.3581 257.315C57.2406 256.535 58.8496 255.215 59.9816 253.52C61.1136 251.826 61.7179 249.834 61.7179 247.797C61.7149 245.066 60.6286 242.447 58.6973 240.516C56.766 238.584 54.1475 237.498 51.4161 237.495Z" fill="white"/>
<path d="M56.1131 247.236L52.3923 242.711C52.2913 242.588 52.1649 242.489 52.0218 242.42C51.8787 242.351 51.7222 242.314 51.5633 242.311C51.4044 242.309 51.2469 242.34 51.1015 242.405C50.9562 242.469 50.8266 242.564 50.7216 242.683L46.7425 247.208C46.5524 247.427 46.4565 247.712 46.4758 248.001C46.4952 248.29 46.6283 248.56 46.8459 248.751C47.0635 248.943 47.3481 249.04 47.6374 249.023C47.9266 249.005 48.1971 248.873 48.3897 248.657L50.4484 246.316V252.186C50.4484 252.477 50.564 252.756 50.7696 252.962C50.9753 253.167 51.2543 253.283 51.5451 253.283C51.836 253.283 52.115 253.167 52.3206 252.962C52.5263 252.756 52.6419 252.477 52.6419 252.186V246.468L54.4189 248.629C54.6036 248.854 54.8701 248.996 55.1596 249.024C55.4491 249.052 55.7379 248.964 55.9626 248.78C56.1872 248.595 56.3293 248.328 56.3575 248.039C56.3858 247.749 56.2979 247.461 56.1131 247.236Z" fill="white"/>
<path d="M310.964 58.7726C308.591 58.7727 306.272 58.069 304.298 56.7506C302.325 55.4323 300.787 53.5584 299.879 51.3659C298.971 49.1735 298.733 46.761 299.196 44.4336C299.659 42.1061 300.802 39.9681 302.48 38.2901C304.158 36.6121 306.296 35.4694 308.623 35.0064C310.951 34.5435 313.363 34.7811 315.556 35.6892C317.748 36.5974 319.622 38.1353 320.941 40.1084C322.259 42.0816 322.963 44.4014 322.963 46.7745C322.959 49.9555 321.694 53.0052 319.444 55.2545C317.195 57.5038 314.145 58.769 310.964 58.7726ZM310.964 36.4723C308.927 36.4722 306.935 37.0764 305.241 38.2084C303.547 39.3403 302.226 40.9493 301.446 42.8317C300.667 44.7141 300.463 46.7855 300.86 48.7839C301.258 50.7823 302.239 52.6179 303.679 54.0587C305.12 55.4995 306.956 56.4807 308.954 56.8783C310.953 57.2758 313.024 57.0718 314.906 56.2921C316.789 55.5124 318.398 54.192 319.53 52.4979C320.662 50.8038 321.266 48.812 321.266 46.7745C321.263 44.0431 320.177 41.4246 318.246 39.4932C316.314 37.5618 313.696 36.4754 310.964 36.4723Z" fill="white"/>
<path d="M315.661 46.2129L311.941 41.6882C311.84 41.5654 311.713 41.4661 311.57 41.397C311.427 41.328 311.27 41.2909 311.112 41.2882C310.953 41.2856 310.795 41.3175 310.65 41.3818C310.504 41.4461 310.375 41.5412 310.27 41.6605L306.291 46.1852C306.101 46.4039 306.005 46.689 306.024 46.9782C306.043 47.2674 306.176 47.5371 306.394 47.7285C306.612 47.9199 306.896 48.0174 307.186 47.9996C307.475 47.9819 307.745 47.8504 307.938 47.6338L309.997 45.2928V51.1631C309.997 51.4539 310.112 51.7329 310.318 51.9385C310.524 52.1442 310.802 52.2598 311.093 52.2598C311.384 52.2598 311.663 52.1442 311.869 51.9385C312.075 51.7329 312.19 51.4539 312.19 51.1631V45.4452L313.967 47.6062C314.152 47.8308 314.418 47.9729 314.708 48.0011C314.997 48.0293 315.286 47.9414 315.511 47.7567C315.735 47.5719 315.878 47.3055 315.906 47.016C315.934 46.7265 315.846 46.4376 315.661 46.2129Z" fill="white"/>
</g>
<defs>
<clipPath id="clip0_22_955">
<rect width="566.125" height="500" fill="white"/>
</clipPath>
</defs>
</svg>
