<svg width="602" height="400" viewBox="0 0 602 400" fill="none" xmlns="http://www.w3.org/2000/svg">
<g clip-path="url(#clip0_22_719)">
<path d="M280.413 326.221C271.618 283.658 260.624 269.467 260.624 269.467L256.425 266.207L251.374 262.281L251.398 261.776L250.2 261.368L249.919 261.15L249.458 260.795L249.384 260.875L249.227 261.037L226.372 253.262L197.376 243.404L183.949 225.936C181.763 223.091 178.947 220.792 175.724 219.218C172.501 217.645 168.958 216.84 165.372 216.866L122.491 217.184C116.693 217.227 111.12 219.439 106.869 223.386L78.6846 249.552L34.767 270.546L34.6929 270.472L34.2317 270.801L27.4461 274.049L27.7261 275.508L23.5262 278.541C23.5262 278.541 12.5324 291.745 3.73736 331.349C1.5 341.427 0.398692 363.044 0.00117813 389.681C-0.018789 391.029 0.229093 392.367 0.730405 393.618C1.23172 394.869 1.97646 396.007 2.92133 396.967C3.8662 397.927 4.99235 398.69 6.2343 399.211C7.47624 399.731 8.8092 400 10.1557 400H244.728L274.005 400C275.351 399.999 276.683 399.731 277.924 399.211C279.165 398.691 280.291 397.929 281.236 396.97C282.18 396.012 282.925 394.874 283.427 393.625C283.929 392.375 284.178 391.039 284.16 389.692C283.772 360.706 282.671 337.149 280.413 326.221Z" fill="#6C63FF"/>
<path d="M280.51 37.1187C271.384 37.1187 262.631 40.7472 256.178 47.2062C249.725 53.6651 246.1 62.4253 246.1 71.5596C246.1 80.694 249.725 89.4542 256.178 95.9131C262.631 102.372 271.384 106.001 280.51 106.001H536.95C546.077 106.001 554.829 102.372 561.282 95.9131C567.735 89.4542 571.361 80.694 571.361 71.5596C571.361 62.4253 567.735 53.6651 561.282 47.2062C554.829 40.7472 546.077 37.1187 536.95 37.1187H280.51Z" fill="#FFB0B0"/>
<path d="M280.51 44.0889C273.231 44.0889 266.25 46.9831 261.102 52.1349C255.955 57.2866 253.063 64.274 253.063 71.5597C253.063 78.8454 255.955 85.8327 261.102 90.9844C266.25 96.1362 273.231 99.0305 280.51 99.0305H536.95C544.229 99.0305 551.21 96.1362 556.358 90.9844C561.505 85.8327 564.397 78.8454 564.397 71.5597C564.397 64.274 561.505 57.2866 556.358 52.1349C551.21 46.9831 544.229 44.0889 536.95 44.0889H280.51Z" fill="white"/>
<path d="M150.665 200.743C181.691 200.743 206.843 175.569 206.843 144.515C206.843 113.461 181.691 88.2871 150.665 88.2871C119.639 88.2871 94.487 113.461 94.487 144.515C94.487 175.569 119.639 200.743 150.665 200.743Z" fill="#F2BDC5"/>
<path d="M136.294 197.99C136.054 197.461 135.814 196.93 135.576 196.397C135.668 196.4 135.759 196.414 135.851 196.416L136.294 197.99Z" fill="#2F2E41"/>
<path d="M92.9247 90.8439C95.7661 88.5753 99.0869 86.4879 102.72 86.6052C106.352 86.7224 110.036 90.0063 109.284 93.5653C115.956 81.7405 126.577 72.6458 139.281 67.8777C151.986 63.1096 165.963 62.9727 178.758 67.4911C187.787 70.6794 196.641 77.0578 198.715 86.4129C199.248 88.8144 199.362 91.4476 200.86 93.3978C202.749 95.8564 206.363 96.4126 209.339 95.5477C209.369 95.5391 209.398 95.5303 209.428 95.5214C209.931 95.3496 210.473 95.3327 210.986 95.4729C211.498 95.6132 211.957 95.904 212.302 96.308C212.648 96.7119 212.864 97.2103 212.923 97.7387C212.983 98.267 212.882 98.8011 212.635 99.2717L210.08 104.04C213.301 104.759 216.647 104.688 219.834 103.833C220.363 103.694 220.923 103.722 221.435 103.914C221.948 104.106 222.389 104.452 222.697 104.904C223.006 105.357 223.167 105.894 223.158 106.441C223.15 106.989 222.972 107.521 222.65 107.964C214.226 119.539 200.153 127.014 185.791 126.926C175.584 126.864 165.272 123.343 155.338 125.692C151.495 126.601 147.904 128.36 144.828 130.839C141.753 133.318 139.271 136.455 137.564 140.019C135.858 143.584 134.971 147.485 134.968 151.437C134.964 155.39 135.845 159.293 137.546 162.86C134.494 159.519 128.594 160.31 125.473 163.586C122.351 166.862 121.543 171.751 121.857 176.267C122.338 183.174 125.042 189.682 127.892 196.016C103.995 195.263 81.3918 178.485 73.7835 155.791C66.1434 133.003 74.1505 105.834 92.9247 90.8439Z" fill="#2F2E41"/>
<path opacity="0.2" d="M55.2938 313.371L71.0504 399.176L80.5048 400L55.2938 313.371Z" fill="black"/>
<path opacity="0.2" d="M228.857 306.9L213.1 399.114L203.646 400L228.857 306.9Z" fill="black"/>
<path d="M106.364 61.9664C103.343 63.2291 100.19 61.8453 98.8683 58.6764C97.5261 55.459 98.7797 52.193 101.849 50.9101C104.919 49.6271 108.015 51.0142 109.379 54.2835C110.723 57.5037 109.483 60.663 106.364 61.9664ZM100.577 44.5772L98.1746 45.5812C97.5745 45.829 96.9033 45.8424 96.2939 45.6186C95.6844 45.3949 95.181 44.9504 94.8834 44.373L94.7646 44.1404C92.1799 39.4749 91.8839 33.8046 93.8896 27.296C95.7476 21.4574 96.5193 17.3512 94.9674 13.6311C93.173 9.33008 89.3413 7.98277 84.4551 9.9345C82.56 10.7265 81.9569 10.7139 80.4656 12.1947C80.1411 12.5207 79.7545 12.778 79.3286 12.9512C78.9027 13.1244 78.4463 13.21 77.9866 13.2029C77.5422 13.1977 77.1035 13.1029 76.6965 12.9243C76.2895 12.7457 75.9226 12.4869 75.6177 12.1633C75.0303 11.5397 74.7012 10.7163 74.6969 9.85922C74.6926 9.00218 75.0133 8.17543 75.5944 7.54594C78.1012 4.91955 81.1246 2.84174 84.474 1.44363C94.9724 -2.94404 100.257 3.53372 102.676 9.33071C105.041 15.0008 103.711 20.2617 101.573 27.0752C99.781 32.7367 99.8853 36.9318 101.921 41.103C102.068 41.4184 102.149 41.7602 102.161 42.108C102.173 42.4557 102.114 42.8023 101.988 43.1268C101.863 43.4513 101.673 43.747 101.431 43.9963C101.188 44.2455 100.898 44.4431 100.577 44.5772Z" fill="#FF5454"/>
<path d="M293 76.0071C295.209 76.0071 297 74.2146 297 72.0035C297 69.7924 295.209 68 293 68C290.791 68 289 69.7924 289 72.0035C289 74.2146 290.791 76.0071 293 76.0071Z" fill="#FF0000"/>
<path d="M325 76.0071C327.209 76.0071 329 74.2146 329 72.0035C329 69.7924 327.209 68 325 68C322.791 68 321 69.7924 321 72.0035C321 74.2146 322.791 76.0071 325 76.0071Z" fill="#FF0000"/>
<path d="M357 76.0071C359.209 76.0071 361 74.2146 361 72.0035C361 69.7924 359.209 68 357 68C354.791 68 353 69.7924 353 72.0035C353 74.2146 354.791 76.0071 357 76.0071Z" fill="#FF0000"/>
<path d="M389 76.0071C391.209 76.0071 393 74.2146 393 72.0035C393 69.7924 391.209 68 389 68C386.791 68 385 69.7924 385 72.0035C385 74.2146 386.791 76.0071 389 76.0071Z" fill="#FF0000"/>
<path d="M421 76.0071C423.209 76.0071 425 74.2146 425 72.0035C425 69.7924 423.209 68 421 68C418.791 68 417 69.7924 417 72.0035C417 74.2146 418.791 76.0071 421 76.0071Z" fill="#FF0000"/>
<path d="M453 76.0071C455.209 76.0071 457 74.2146 457 72.0035C457 69.7924 455.209 68 453 68C450.791 68 449 69.7924 449 72.0035C449 74.2146 450.791 76.0071 453 76.0071Z" fill="#FF0000"/>
<path d="M485 76.0071C487.209 76.0071 489 74.2146 489 72.0035C489 69.7924 487.209 68 485 68C482.791 68 481 69.7924 481 72.0035C481 74.2146 482.791 76.0071 485 76.0071Z" fill="#FF0000"/>
<path d="M517 76.0071C519.209 76.0071 521 74.2146 521 72.0035C521 69.7924 519.209 68 517 68C514.791 68 513 69.7924 513 72.0035C513 74.2146 514.791 76.0071 517 76.0071Z" fill="#FF0000"/>
</g>
<defs>
<clipPath id="clip0_22_719">
<rect width="601.361" height="400" fill="white"/>
</clipPath>
</defs>
</svg>
