<svg width="343" height="400" viewBox="0 0 343 400" fill="none" xmlns="http://www.w3.org/2000/svg">
<g clip-path="url(#clip0_22_741)">
<path d="M331.857 147.429H10.7903C7.92956 147.426 5.18689 146.288 3.16401 144.265C1.14114 142.242 0.00324224 139.5 -6.10352e-05 136.639V10.7904C0.00324224 7.92961 1.14114 5.18695 3.16401 3.16407C5.18689 1.1412 7.92956 0.00330328 10.7903 0H331.857C334.717 0.00330328 337.46 1.1412 339.483 3.16407C341.506 5.18695 342.644 7.92961 342.647 10.7904V136.639C342.644 139.5 341.506 142.242 339.483 144.265C337.46 146.288 334.717 147.426 331.857 147.429Z" fill="#F2F2F2"/>
<path d="M256.977 140.548H61.7547C47.207 140.531 33.2599 134.745 22.9731 124.458C12.6863 114.171 6.90002 100.224 6.88361 85.6766V61.7592C6.9 47.2115 12.6863 33.2643 22.9731 22.9774C33.2598 12.6906 47.207 6.9042 61.7547 6.8877H280.894C295.442 6.9042 309.389 12.6906 319.676 22.9774C329.963 33.2643 335.749 47.2115 335.765 61.7592C335.742 82.6479 327.433 102.674 312.663 117.445C297.892 132.216 277.866 140.524 256.977 140.548Z" fill="white"/>
<path d="M206.617 42.9138H77.5732C76.8352 42.9138 76.1274 42.6206 75.6055 42.0988C75.0836 41.5769 74.7904 40.869 74.7904 40.131C74.7904 39.3929 75.0836 38.6851 75.6055 38.1632C76.1274 37.6413 76.8352 37.3481 77.5732 37.3481H206.617C207.355 37.3481 208.063 37.6413 208.585 38.1632C209.107 38.6851 209.4 39.3929 209.4 40.131C209.4 40.869 209.107 41.5769 208.585 42.0988C208.063 42.6206 207.355 42.9138 206.617 42.9138Z" fill="#E6E6E6"/>
<path d="M271.942 72.6047H77.5732C76.8352 72.6047 76.1274 72.3116 75.6055 71.7897C75.0836 71.2678 74.7904 70.56 74.7904 69.8219C74.7904 69.0838 75.0836 68.376 75.6055 67.8541C76.1274 67.3323 76.8352 67.0391 77.5732 67.0391H271.942C272.68 67.0391 273.388 67.3323 273.91 67.8541C274.432 68.376 274.725 69.0838 274.725 69.8219C274.725 70.56 274.432 71.2678 273.91 71.7897C273.388 72.3116 272.68 72.6047 271.942 72.6047Z" fill="#E6E6E6"/>
<path d="M271.942 102.296H77.5732C76.8352 102.296 76.1274 102.003 75.6055 101.481C75.0836 100.959 74.7904 100.251 74.7904 99.5133C74.7904 98.7752 75.0836 98.0674 75.6055 97.5455C76.1274 97.0237 76.8352 96.7305 77.5732 96.7305H271.942C272.68 96.7305 273.388 97.0237 273.91 97.5455C274.432 98.0674 274.725 98.7752 274.725 99.5133C274.725 100.251 274.432 100.959 273.91 101.481C273.388 102.003 272.68 102.296 271.942 102.296Z" fill="#E6E6E6"/>
<path d="M271.942 102.296H77.5732C76.8352 102.296 76.1274 102.003 75.6055 101.481C75.0836 100.959 74.7904 100.251 74.7904 99.5133C74.7904 98.7752 75.0836 98.0674 75.6055 97.5455C76.1274 97.0237 76.8352 96.7305 77.5732 96.7305H271.942C272.68 96.7305 273.388 97.0237 273.91 97.5455C274.432 98.0674 274.725 98.7752 274.725 99.5133C274.725 100.251 274.432 100.959 273.91 101.481C273.388 102.003 272.68 102.296 271.942 102.296Z" fill="#E6E6E6"/>
<path d="M193 76.0125C193.031 76.8507 193.245 77.672 193.628 78.4184C194.011 79.1649 194.552 79.8183 195.215 80.3328C195.877 80.8472 196.645 81.2101 197.463 81.396C198.281 81.5818 199.129 81.586 199.949 81.4084L210.562 98.8186L215.079 89.2339L204.308 74.1703C203.918 72.8129 203.044 71.6457 201.851 70.8897C200.658 70.1338 199.23 69.8417 197.836 70.0687C196.442 70.2958 195.18 71.0263 194.289 72.1217C193.397 73.2172 192.939 74.6016 193 76.0125Z" fill="#FFB6B6"/>
<path d="M272.641 125.909L236.068 106.071L224.532 95.248C224.532 95.248 219.517 93.9053 221.363 92.2747C223.209 90.644 217.948 89.0714 217.948 89.0714L211.756 83.2612L202.956 89.4877L205.503 93.4355C205.503 93.4355 205.327 99.971 208.908 98.7137C212.488 97.4563 211.593 102.877 211.593 102.877L232.963 136.003L272.641 125.909Z" fill="#0A66C2"/>
<path d="M164.681 107.219C184.41 107.219 200.404 91.2249 200.404 71.4954C200.404 51.7659 184.41 35.772 164.681 35.772C144.951 35.772 128.957 51.7659 128.957 71.4954C128.957 91.2249 144.951 107.219 164.681 107.219Z" fill="#0A66C2"/>
<path d="M272.754 386.111H265.326L261.792 357.461H272.754V386.111Z" fill="#FFB6B6"/>
<path d="M276.675 398.981H271.348L270.397 393.952L267.962 398.981H253.834C253.157 398.981 252.498 398.764 251.952 398.363C251.407 397.962 251.004 397.397 250.802 396.75C250.601 396.104 250.611 395.41 250.832 394.769C251.053 394.129 251.473 393.576 252.03 393.192L263.312 385.4V380.315L275.179 381.024L276.675 398.981Z" fill="#2F2E41"/>
<path d="M213.347 386.111H205.919L202.384 357.461H213.347V386.111Z" fill="#FFB6B6"/>
<path d="M217.267 398.981H211.94L210.99 393.952L208.555 398.981H194.427C193.749 398.981 193.09 398.764 192.544 398.363C191.999 397.962 191.596 397.397 191.395 396.75C191.193 396.104 191.203 395.41 191.424 394.769C191.645 394.129 192.065 393.576 192.622 393.192L203.904 385.4V380.315L215.771 381.024L217.267 398.981Z" fill="#2F2E41"/>
<path d="M264.873 169.432H227.383V212.113H264.873V169.432Z" fill="#FFB6B6"/>
<path d="M228.248 190.484L221.903 197.982L210.945 221.053L183.332 286.754L177.492 300.648L182.208 325.211C182.208 325.211 182.971 342.516 182.971 345.348C182.971 351.116 187.795 354.312 187.795 354.312L191.334 372.745L225.652 371.303C225.652 371.303 224.455 350.985 217.267 345.859C210.079 340.734 206.775 314.023 206.775 314.023L202.87 302.172L240.937 257.047L241.183 272.821L241.302 280.456C241.302 280.456 235.727 330.112 242.225 339.749C248.723 349.386 242.358 348.252 242.358 348.252L242.667 368.131L283.33 368.419L274.359 311.187C274.359 311.187 269.804 307.591 272.241 303.975C274.678 300.36 269.879 295.932 269.879 295.932L272.032 251.253C272.032 251.253 269.648 243.535 272.452 242.532C275.255 241.529 272.82 234.892 272.82 234.892L273.236 226.244L264.873 199.424L228.248 190.484Z" fill="#2F2E41"/>
<path d="M265.45 169.432L269.487 157.32L272.371 153.283L273.525 141.747C273.525 110.601 266.577 115.788 266.577 115.788L262.566 104.834L244.109 104.257L232.285 115.504L222.48 118.965L218.641 138.915L225.652 160.204L227.383 171.739C224.082 177.833 224.361 174.951 227.094 179.526L259.682 188.466C271.218 192.503 271.218 182.121 268.905 179.526C266.591 176.93 265.45 169.432 265.45 169.432Z" fill="#0A66C2"/>
<path d="M250.953 100.385C260.403 100.385 268.063 92.7243 268.063 83.2746C268.063 73.825 260.403 66.1646 250.953 66.1646C241.504 66.1646 233.843 73.825 233.843 83.2746C233.843 92.7243 241.504 100.385 250.953 100.385Z" fill="#FFB6B6"/>
<path d="M273.796 106.114C273.957 106.386 274.055 106.691 274.082 107.006C274.109 107.321 274.064 107.638 273.952 107.933C273.839 108.229 273.661 108.495 273.432 108.712C273.202 108.93 272.926 109.092 272.625 109.188C270.329 109.949 268.916 112.17 267.267 113.946C265.623 115.717 262.976 117.188 260.876 115.982C258.782 114.783 258.638 111.72 256.885 110.059C255.178 108.444 252.34 108.64 250.333 109.869L250.273 109.906C249.926 110.131 249.521 110.251 249.107 110.249C248.694 110.247 248.29 110.124 247.945 109.895C247.601 109.666 247.331 109.341 247.17 108.96C247.008 108.58 246.961 108.16 247.036 107.753C247.739 104.013 248.442 100.273 249.144 96.5336C247.298 100.981 244.618 105.033 241.248 108.473C240.32 109.544 239.144 110.372 237.822 110.884C236.623 111.264 235.458 110.024 234.292 110.249C237.188 107.717 246.924 91.4867 245.182 80.6376C243.134 80.8683 241.087 81.0991 239.039 81.3298C238.818 80.3607 238.344 79.4674 237.667 78.7401C237.749 79.6831 237.629 80.633 237.315 81.5259C236.461 81.6239 235.602 81.7162 234.748 81.8142C233.56 81.9469 232.268 82.0623 231.247 81.4394C229.546 80.4012 229.494 77.9441 229.978 76.0061C231.397 70.371 235.7 65.6588 240.966 63.1902C246.232 60.7274 247.789 66.2125 253.338 64.4591C264.296 60.9985 272.694 66.9162 275.653 77.898C278.139 87.1091 276.334 96.8854 273.796 106.114Z" fill="#2F2E41"/>
<path d="M321.164 399.353H300.213L300.123 399.19C299.856 398.704 299.597 398.189 299.355 397.66C297.197 393.04 296.285 387.756 295.48 383.094L294.874 379.579C294.801 379.154 294.856 378.716 295.033 378.322C295.21 377.928 295.5 377.596 295.867 377.368C296.234 377.14 296.66 377.027 297.092 377.042C297.523 377.058 297.94 377.203 298.29 377.457C301.474 379.774 304.659 382.088 307.845 384.401C309.052 385.279 310.43 386.295 311.749 387.393C311.877 386.774 312.01 386.154 312.143 385.542C312.235 385.12 312.451 384.735 312.763 384.436C313.075 384.137 313.469 383.938 313.895 383.864C314.321 383.791 314.759 383.846 315.153 384.023C315.547 384.199 315.88 384.49 316.108 384.857L318.559 388.795C320.347 391.671 321.925 394.505 321.604 397.562C321.605 397.599 321.603 397.636 321.595 397.673C321.531 398.175 321.412 398.669 321.24 399.145L321.164 399.353Z" fill="#F0F0F0"/>
<path d="M342.193 399.806L143.104 400C142.905 399.999 142.715 399.919 142.575 399.779C142.435 399.638 142.356 399.447 142.356 399.248C142.356 399.05 142.435 398.859 142.575 398.718C142.715 398.577 142.905 398.498 143.104 398.497L342.193 398.303C342.392 398.304 342.582 398.383 342.722 398.524C342.862 398.665 342.941 398.856 342.941 399.054C342.941 399.253 342.862 399.444 342.722 399.585C342.582 399.725 342.392 399.805 342.193 399.806Z" fill="#CACACA"/>
<path d="M161.433 119.577L139.535 101.083C138.786 100.449 138.319 99.5449 138.237 98.5677C138.155 97.5905 138.463 96.6205 139.095 95.8706L143.126 91.0978C143.759 90.3493 144.664 89.8826 145.641 89.8002C146.618 89.7178 147.588 90.0264 148.338 90.6583L170.237 109.152C170.986 109.785 171.452 110.69 171.535 111.667C171.617 112.644 171.308 113.614 170.676 114.364L166.646 119.137C166.012 119.886 165.108 120.352 164.131 120.435C163.153 120.517 162.183 120.208 161.433 119.577Z" fill="#3F3D56"/>
<path d="M140.684 96.2553C140.343 96.6595 140.177 97.1822 140.221 97.7088C140.266 98.2354 140.517 98.7228 140.92 99.0643L162.819 117.558C163.224 117.898 163.746 118.065 164.273 118.02C164.799 117.976 165.287 117.724 165.628 117.321L169.659 112.548C169.999 112.144 170.166 111.621 170.121 111.095C170.077 110.568 169.825 110.081 169.422 109.739L147.523 91.2458C147.119 90.9053 146.596 90.739 146.07 90.7834C145.543 90.8278 145.056 91.0793 144.714 91.4826L140.684 96.2553Z" fill="white"/>
<path d="M153.54 103.444C153.464 103.551 153.364 103.638 153.248 103.699C153.133 103.76 153.005 103.793 152.874 103.796L149.433 103.875C149.323 103.878 149.213 103.859 149.11 103.819C149.007 103.779 148.912 103.719 148.832 103.643C148.752 103.566 148.688 103.475 148.644 103.374C148.599 103.272 148.575 103.164 148.572 103.053C148.57 102.942 148.589 102.832 148.629 102.729C148.669 102.626 148.729 102.532 148.805 102.452C148.881 102.372 148.973 102.308 149.074 102.263C149.175 102.219 149.284 102.194 149.395 102.192L151.646 102.14L149.429 96.2908C149.35 96.0821 149.358 95.8508 149.45 95.6477C149.541 95.4445 149.71 95.286 149.918 95.207C150.127 95.128 150.358 95.1349 150.562 95.2262C150.765 95.3175 150.924 95.4857 151.003 95.694L153.642 102.656C153.69 102.782 153.707 102.918 153.691 103.052C153.676 103.185 153.628 103.313 153.553 103.425L153.54 103.444Z" fill="#0A66C2"/>
<path d="M153.981 104.914C154.811 105.036 155.604 105.339 156.304 105.8C157.005 106.262 157.596 106.871 158.035 107.586C158.474 108.3 158.752 109.103 158.847 109.936C158.943 110.769 158.855 111.613 158.589 112.409L174.742 124.852L164.723 128.3L150.92 115.955C149.613 115.42 148.548 114.424 147.926 113.156C147.304 111.888 147.169 110.436 147.547 109.075C147.924 107.714 148.787 106.539 149.973 105.772C151.159 105.005 152.585 104.7 153.981 104.914Z" fill="#FFB6B6"/>
<path d="M238.077 111.067L196.72 136.495C196.72 136.495 180.046 130.325 183.304 127.469C186.563 124.613 176.189 122.682 176.189 122.682L164.729 114.972L158.078 122.7C158.078 122.7 159.29 135.254 161.352 133.081C163.414 130.907 166.496 136.845 166.496 136.845C166.496 136.845 167.406 143.475 173.275 141.807C179.144 140.138 194.893 157.628 194.893 157.628L245.791 138.645L238.077 111.067Z" fill="#0A66C2"/>
<path d="M163.425 85.8255C162.945 85.8255 162.472 85.7138 162.043 85.4994C161.615 85.2849 161.242 84.9735 160.954 84.5899L153.38 74.4905C153.136 74.166 152.959 73.7968 152.859 73.4039C152.758 73.0111 152.736 72.6022 152.793 72.2007C152.851 71.7993 152.986 71.413 153.193 71.064C153.4 70.7151 153.673 70.4102 153.997 70.1669C154.653 69.6755 155.476 69.4645 156.287 69.5803C156.689 69.6377 157.075 69.7736 157.424 69.9802C157.773 70.1869 158.078 70.4602 158.321 70.7847L163.277 77.3914L176.004 58.3006C176.458 57.619 177.165 57.1459 177.968 56.9853C178.771 56.8246 179.605 56.9896 180.287 57.444C180.968 57.8984 181.441 58.6048 181.602 59.408C181.763 60.2112 181.598 61.0453 181.143 61.7269L165.995 84.4502C165.72 84.8611 165.352 85.2004 164.92 85.4395C164.488 85.6787 164.004 85.8107 163.51 85.8245C163.482 85.825 163.453 85.8255 163.425 85.8255Z" fill="white"/>
</g>
<defs>
<clipPath id="clip0_22_741">
<rect width="342.941" height="400" fill="white"/>
</clipPath>
</defs>
</svg>
