<svg width="532" height="400" viewBox="0 0 532 400" fill="none" xmlns="http://www.w3.org/2000/svg">
<g clip-path="url(#clip0_22_838)">
<path d="M144.138 374.167H110.797V335.676L67.2546 268.912L95.175 250.703L138.527 317.176C141.631 321.932 143.329 327.468 143.426 333.147L144.138 374.167Z" fill="#E6E6E6" stroke="black"/>
<path d="M419.964 256.667C357.347 256.667 308.297 245.32 308.297 230.833C308.297 222.149 325.677 214.4 355.981 209.574C356.089 209.556 356.2 209.56 356.307 209.585C356.414 209.61 356.514 209.656 356.603 209.721C356.692 209.785 356.768 209.866 356.825 209.96C356.883 210.053 356.922 210.157 356.939 210.265C356.956 210.374 356.952 210.485 356.926 210.591C356.9 210.698 356.854 210.799 356.789 210.887C356.725 210.976 356.643 211.051 356.549 211.108C356.455 211.165 356.351 211.203 356.243 211.22C327.697 215.766 309.964 223.281 309.964 230.833C309.964 243.933 360.338 255 419.964 255C479.59 255 529.964 243.933 529.964 230.833C529.964 223.25 512.118 215.716 483.389 211.173C483.171 211.138 482.976 211.018 482.847 210.839C482.717 210.66 482.664 210.438 482.699 210.22C482.733 210.002 482.853 209.806 483.031 209.677C483.209 209.547 483.432 209.493 483.65 209.526C514.142 214.349 531.631 222.115 531.631 230.833C531.631 245.32 482.581 256.667 419.964 256.667Z" fill="#2F2E41"/>
<path d="M364.565 261.532C370.231 271.234 378.344 279.277 388.095 284.858C397.845 290.439 408.89 293.361 420.125 293.333C431.359 293.305 442.39 290.327 452.112 284.697C461.834 279.067 469.907 270.982 475.523 261.252C438.57 263.379 401.528 263.472 364.565 261.532Z" fill="#E6E6E6" stroke="black"/>
<path d="M481.666 243.436C484.397 233.86 484.861 223.779 483.023 213.993C481.184 204.206 477.093 194.981 471.073 187.049C465.053 179.117 457.269 172.695 448.338 168.291C439.406 163.887 429.573 161.622 419.615 161.676C409.657 161.73 399.848 164.101 390.965 168.601C382.082 173.101 374.368 179.607 368.434 187.604C362.5 195.601 358.509 204.869 356.776 214.675C355.043 224.481 355.617 234.556 358.451 244.102C399.379 249.209 440.796 248.986 481.666 243.436Z" fill="#E6E6E6" stroke="black"/>
<path d="M99.5471 7.50002C99.5468 6.14408 99.1788 4.8136 98.4825 3.65014C97.7861 2.48668 96.7873 1.53378 95.5924 0.892811C94.3976 0.251846 93.0513 -0.053194 91.6968 0.0101407C90.3424 0.0734754 89.0304 0.502816 87.9005 1.25249C86.7707 2.00216 85.8652 3.04411 85.2804 4.26747C84.6957 5.49083 84.4535 6.84985 84.5797 8.1999C84.7059 9.54996 85.1957 10.8406 85.997 11.9344C86.7984 13.0282 87.8813 13.8843 89.1305 14.4116V53.3334H94.9638V14.4116C96.3226 13.8377 97.4821 12.876 98.2973 11.6467C99.1125 10.4174 99.5473 8.97506 99.5471 7.50002Z" fill="#CCCCCC" stroke="black"/>
<path d="M141.633 194.167H141.631C139.388 194.164 137.17 193.71 135.107 192.831C133.045 191.952 131.18 190.666 129.626 189.051C128.071 187.435 126.858 185.523 126.059 183.428C125.26 181.333 124.892 179.098 124.976 176.858C125.31 168.022 132.96 160.833 142.029 160.833H187.817L225.494 144.154C226.504 143.708 227.65 143.682 228.681 144.079C229.711 144.477 230.542 145.268 230.99 146.277L241.111 169.138C241.556 170.148 241.583 171.294 241.185 172.325C240.787 173.355 239.997 174.186 238.987 174.634L201.878 191.062C198.202 192.695 194.231 193.559 190.21 193.601L141.633 194.167Z" fill="#2F2E41"/>
<path d="M30.6448 281.952C30.4277 281.952 30.2109 281.934 29.9968 281.897L5.35509 277.692C4.86199 277.608 4.39091 277.426 3.96918 277.157C3.54746 276.888 3.18383 276.537 2.89969 276.125C2.61556 275.714 2.41668 275.249 2.31475 274.76C2.21282 274.27 2.20992 273.765 2.3062 273.274L21.5941 174.898C22.3204 170.65 24.7045 166.865 28.2219 164.374C31.7393 161.884 36.1019 160.893 40.35 161.619C44.5981 162.345 48.3837 164.73 50.874 168.247C53.3643 171.764 54.3553 176.127 53.629 180.375L34.3077 278.922C34.1459 279.775 33.6913 280.544 33.0225 281.097C32.3538 281.651 31.5128 281.953 30.6448 281.952Z" fill="#2F2E41"/>
<path d="M17.4639 303.333C25.7481 303.333 32.4639 296.618 32.4639 288.333C32.4639 280.049 25.7481 273.333 17.4639 273.333C9.1796 273.333 2.46387 280.049 2.46387 288.333C2.46387 296.618 9.1796 303.333 17.4639 303.333Z" fill="#E6E6E6" stroke="black"/>
<path d="M90.233 159.731C121.069 159.731 146.066 134.734 146.066 103.898C146.066 73.0619 121.069 48.0645 90.233 48.0645C59.3971 48.0645 34.3997 73.0619 34.3997 103.898C34.3997 134.734 59.3971 159.731 90.233 159.731Z" fill="#E6E6E6"/>
<path d="M90.233 159.731C121.069 159.731 146.066 134.734 146.066 103.898C146.066 73.0619 121.069 48.0645 90.233 48.0645C59.3971 48.0645 34.3997 73.0619 34.3997 103.898C34.3997 134.734 59.3971 159.731 90.233 159.731Z" fill="#E6E6E6" stroke="black"/>
<path d="M90.2329 146.397C113.705 146.397 132.733 127.37 132.733 103.897C132.733 80.4254 113.705 61.3975 90.2329 61.3975C66.7608 61.3975 47.7329 80.4254 47.7329 103.897C47.7329 127.37 66.7608 146.397 90.2329 146.397Z" fill="#22BB33"/>
<path d="M95.2017 121.738C92.4468 121.662 89.0182 121.566 86.3767 119.637C85.5902 119.038 84.9439 118.276 84.4833 117.401C84.0226 116.527 83.7587 115.563 83.71 114.576C83.6622 113.875 83.7773 113.172 84.0463 112.522C84.3152 111.873 84.7307 111.294 85.2603 110.832C86.6399 109.666 88.6545 109.392 90.8255 110.03L88.5762 93.5924L90.2274 93.3662L92.8717 112.691L91.4928 112.058C89.8942 111.325 87.6998 110.952 86.3362 112.104C86.0013 112.406 85.7405 112.78 85.5739 113.199C85.4073 113.617 85.3394 114.068 85.3756 114.517C85.416 115.252 85.6142 115.969 85.9566 116.62C86.299 117.271 86.7777 117.841 87.36 118.291C89.4155 119.792 92.1485 119.986 95.2481 120.072L95.2017 121.738Z" fill="#2F2E41"/>
<path d="M80.4102 95.0103H71.4338V96.6769H80.4102V95.0103Z" fill="#2F2E41"/>
<path d="M108.743 95.0103H99.7671V96.6769H108.743V95.0103Z" fill="#2F2E41"/>
<path opacity="0.2" d="M61.6306 104.167C61.6313 94.0113 65.2676 84.1916 71.8815 76.4851C78.4953 68.7786 87.6495 63.6944 97.6873 62.1528C91.6223 61.1282 85.4072 61.4324 79.4712 63.0445C73.5353 64.6566 68.0201 67.5381 63.3066 71.49C58.5931 75.4418 54.7937 80.3698 52.1708 85.9335C49.548 91.4972 48.1642 97.564 48.1151 103.715C48.066 109.865 49.3528 115.954 51.8865 121.558C54.4202 127.163 58.1404 132.151 62.7902 136.178C67.44 140.204 72.9086 143.174 78.818 144.88C84.7275 146.587 90.9369 146.99 97.0175 146.063C87.1218 144.382 78.1401 139.253 71.6633 131.585C65.1864 123.917 61.6324 114.204 61.6306 104.167Z" fill="black"/>
<path d="M85.3806 399.583H52.8806V302.083H85.3806V399.583Z" fill="#E6E6E6" stroke="black"/>
<path d="M126.066 311.25H54.3995C52.5215 311.248 50.7211 310.501 49.3932 309.173C48.0652 307.845 47.3183 306.044 47.3162 304.167V277.5C47.3183 275.622 48.0652 273.821 49.3932 272.493C50.7211 271.166 52.5215 270.419 54.3995 270.417H126.066C127.944 270.419 129.745 271.166 131.073 272.493C132.4 273.821 133.147 275.622 133.149 277.5V304.167C133.147 306.044 132.4 307.845 131.073 309.173C129.745 310.501 127.944 311.248 126.066 311.25Z" fill="#E6E6E6" stroke="black"/>
<path d="M149.964 389.583H111.214V363.75H149.964C153.39 363.75 156.675 365.111 159.097 367.533C161.52 369.956 162.881 373.241 162.881 376.667C162.881 380.092 161.52 383.378 159.097 385.8C156.675 388.222 153.39 389.583 149.964 389.583Z" fill="#2F2E41"/>
<path d="M91.6306 399.583H52.8806V373.75H91.6306C95.0563 373.75 98.3417 375.111 100.764 377.533C103.186 379.956 104.547 383.241 104.547 386.667C104.547 390.092 103.186 393.378 100.764 395.8C98.3417 398.222 95.0563 399.583 91.6306 399.583Z" fill="#2F2E41"/>
<path d="M183.333 400H0.833333C0.61232 400 0.40037 399.912 0.24409 399.756C0.0878095 399.6 0 399.388 0 399.167C0 398.946 0.0878095 398.734 0.24409 398.578C0.40037 398.421 0.61232 398.333 0.833333 398.333H183.333C183.554 398.333 183.766 398.421 183.923 398.578C184.079 398.734 184.167 398.946 184.167 399.167C184.167 399.388 184.079 399.6 183.923 399.756C183.766 399.912 183.554 400 183.333 400Z" fill="#3F3D56"/>
<path d="M243.297 168.333C251.582 168.333 258.297 161.618 258.297 153.333C258.297 145.049 251.582 138.333 243.297 138.333C235.013 138.333 228.297 145.049 228.297 153.333C228.297 161.618 235.013 168.333 243.297 168.333Z" fill="#E6E6E6" stroke="black"/>
<path d="M247.881 213.75C246.555 213.749 245.284 213.221 244.347 212.284C243.409 211.347 242.882 210.076 242.881 208.75V28.75C242.881 27.4239 243.407 26.1521 244.345 25.2145C245.283 24.2768 246.555 23.75 247.881 23.75C249.207 23.75 250.478 24.2768 251.416 25.2145C252.354 26.1521 252.881 27.4239 252.881 28.75V208.75C252.879 210.076 252.352 211.347 251.415 212.284C250.477 213.221 249.206 213.749 247.881 213.75Z" fill="#3F3D56"/>
<path d="M399.681 25.2831C395.289 21.4414 380.206 9.4831 360.747 7.29976C346.189 5.67476 329.181 9.51644 312.372 26.3331C298.889 39.8165 286.172 46.2081 274.573 45.3414C262.73 44.4498 254.856 36.0331 251.214 31.0914C250.958 30.7382 250.596 30.4762 250.181 30.3442C249.765 30.2122 249.318 30.2171 248.906 30.3581C248.484 30.4903 248.117 30.7545 247.857 31.1116C247.598 31.4688 247.46 31.8999 247.464 32.3414V94.5581C247.465 94.9525 247.577 95.3386 247.788 95.6718C247.999 96.005 248.3 96.2719 248.656 96.4414C253.197 98.5914 269.555 105.733 286.022 105.733C295.681 105.733 305.389 103.275 312.756 95.8998C312.831 95.8248 312.897 95.7581 312.972 95.6914C326.022 82.9914 354.789 85.5997 375.781 89.7498C384.464 91.4664 391.814 93.4414 396.172 94.7081C396.73 94.8693 397.318 94.8985 397.889 94.7934C398.46 94.6883 398.999 94.4518 399.463 94.1026C399.927 93.7534 400.303 93.3011 400.562 92.7813C400.821 92.2616 400.956 91.6888 400.956 91.1081V28.1081C400.956 27.5737 400.842 27.0453 400.623 26.5582C400.403 26.0711 400.082 25.6364 399.681 25.2831Z" fill="#22BB33"/>
<path d="M433.297 202.5C437.439 202.5 440.797 199.142 440.797 195C440.797 190.858 437.439 187.5 433.297 187.5C429.155 187.5 425.797 190.858 425.797 195C425.797 199.142 429.155 202.5 433.297 202.5Z" fill="#2F2E41"/>
<path d="M419.964 285C424.106 285 427.464 281.642 427.464 277.5C427.464 273.358 424.106 270 419.964 270C415.822 270 412.464 273.358 412.464 277.5C412.464 281.642 415.822 285 419.964 285Z" fill="#2F2E41"/>
<path d="M132.733 282.083H47.7329C44.0874 282.079 40.5925 280.629 38.0148 278.052C35.437 275.474 33.987 271.979 33.9829 268.333V172.5C33.987 168.855 35.437 165.36 38.0148 162.782C40.5925 160.204 44.0874 158.754 47.7329 158.75H60.6496V162.5C60.6524 165.041 61.663 167.477 63.4596 169.273C65.2562 171.07 67.6921 172.08 70.2329 172.083H110.233C112.774 172.08 115.21 171.07 117.006 169.273C118.803 167.477 119.813 165.041 119.816 162.5V158.75H132.733C136.378 158.754 139.873 160.204 142.451 162.782C145.029 165.36 146.479 168.855 146.483 172.5V268.333C146.479 271.979 145.029 275.474 142.451 278.052C139.873 280.629 136.378 282.079 132.733 282.083Z" fill="#E6E6E6" stroke="black"/>
<path d="M395.797 233.333C402.701 233.333 408.297 227.737 408.297 220.833C408.297 213.93 402.701 208.333 395.797 208.333C388.894 208.333 383.297 213.93 383.297 220.833C383.297 227.737 388.894 233.333 395.797 233.333Z" fill="#2F2E41"/>
<path d="M130.797 200.75H99.964C99.3231 200.75 98.7084 200.495 98.2552 200.042C97.802 199.589 97.5474 198.974 97.5474 198.333C97.5474 197.692 97.802 197.078 98.2552 196.624C98.7084 196.171 99.3231 195.917 99.964 195.917H130.797C131.438 195.917 132.053 196.171 132.506 196.624C132.959 197.078 133.214 197.692 133.214 198.333C133.214 198.974 132.959 199.589 132.506 200.042C132.053 200.495 131.438 200.75 130.797 200.75Z" fill="white" stroke="black"/>
<path d="M130.797 211.167H99.964C99.3231 211.167 98.7084 210.912 98.2552 210.459C97.802 210.006 97.5474 209.391 97.5474 208.75C97.5474 208.109 97.802 207.495 98.2552 207.041C98.7084 206.588 99.3231 206.333 99.964 206.333H130.797C131.438 206.333 132.053 206.588 132.506 207.041C132.959 207.495 133.214 208.109 133.214 208.75C133.214 209.391 132.959 210.006 132.506 210.459C132.053 210.912 131.438 211.167 130.797 211.167Z" fill="white" stroke="black"/>
</g>
<defs>
<clipPath id="clip0_22_838">
<rect width="531.631" height="400" fill="white"/>
</clipPath>
</defs>
</svg>
