<svg width="608" height="400" viewBox="0 0 608 400" fill="none" xmlns="http://www.w3.org/2000/svg">
<g clip-path="url(#clip0_22_993)">
<path d="M396.549 174.657C395.848 178.339 395.009 181.983 394.029 185.59C393.923 186.009 393.804 186.421 393.686 186.84H380.065C378.905 186.842 377.792 187.303 376.972 188.123C376.152 188.944 375.69 190.056 375.689 191.216V230.047C375.276 230.816 374.857 231.579 374.439 232.341C372.276 236.28 370.025 240.174 367.725 244.018C330.215 306.501 277.898 358.788 215.394 396.262L219.095 387.911C217.738 387.817 216.375 387.723 215.019 387.629C185.483 385.61 155.847 383.372 127.005 376.734C96.8309 369.789 67.3137 357.743 43.6661 337.771C20.012 317.793 2.67182 289.263 0.265117 258.396C-0.537391 247.787 0.535499 237.12 3.43458 226.884C8.979 207.181 21.0937 189.453 38.5716 178.964C66.026 162.493 101.838 165.849 130.78 179.552C159.716 193.248 183.27 215.92 206.268 238.199C183.048 198.381 150.719 164.636 111.933 139.733C99.0813 131.506 85.4417 124.18 74.5149 113.522C63.5942 102.87 55.5366 87.9366 57.4684 72.8029C59.6623 55.6376 73.721 42.6105 87.8044 32.5651C93.4304 28.5519 99.2376 24.7451 105.226 21.2445C122.122 11.3429 140.401 3.87292 159.704 1.10372C185.852 -2.65315 214.094 3.04779 234.141 20.2506C256.726 39.635 265.99 70.8963 265.108 100.801C279.023 80.5729 300.483 65.0891 324.718 64.4328C349.878 63.7577 373.795 79.654 386.397 101.445C398.993 123.23 401.255 149.934 396.549 174.657Z" fill="#E6E6E6"/>
<path d="M237.361 258.668C252.098 257.37 265.711 255.854 279.991 251.813C293.833 247.896 307.152 241.339 317.006 230.633C327.604 219.118 333.326 204.163 337.362 189.276C339.613 180.976 341.462 172.559 343.207 164.14C345.1 155.006 346.782 145.83 348.253 136.615C351.181 118.271 353.272 99.8196 354.525 81.2599C354.676 79.007 354.815 76.7533 354.941 74.4989C355.019 73.1082 352.856 73.1126 352.778 74.4989C351.749 92.7935 349.898 111.017 347.224 129.169C344.586 147.003 341.21 164.76 336.927 182.274C333.299 197.112 328.601 212.181 319.296 224.533C310.57 236.115 297.966 243.685 284.357 248.21C270.51 252.815 255.909 254.654 241.438 256.021C239.663 256.189 239.137 256.348 237.361 256.505C235.985 256.626 235.973 258.79 237.361 258.668Z" fill="white"/>
<path d="M4.68293 228.48C23.2757 229.511 41.6795 232.754 59.5049 238.14C77.3379 243.515 94.4749 250.975 110.561 260.364C126.104 269.443 140.533 280.307 153.555 292.735C166.194 304.804 177.457 318.234 187.14 332.78C196.868 347.363 204.929 362.991 211.173 379.371C211.935 381.376 212.668 383.391 213.374 385.416C213.829 386.722 215.92 386.16 215.459 384.841C209.617 368.115 201.916 352.099 192.5 337.091C183.086 322.083 172.038 308.164 159.557 295.59C146.877 282.821 132.764 271.558 117.5 262.027C85.4502 242.063 49.1221 229.985 11.4987 226.786C9.22919 226.596 6.95727 226.44 4.68296 226.317C3.29211 226.241 3.29635 228.404 4.68293 228.48Z" fill="white"/>
<path d="M105.81 23.78C117.698 27.5608 128.967 33.0672 139.254 40.1228C149.766 47.3816 159.354 55.8959 167.804 65.477C176.708 75.556 184.625 86.4663 191.445 98.058C198.679 110.297 204.963 123.073 210.242 136.274C215.678 149.826 220.25 163.71 223.931 177.84C227.672 192.138 230.595 206.638 232.684 221.269C234.762 235.745 236.02 250.327 236.451 264.945C236.886 278.922 236.473 292.914 235.214 306.842C234.063 319.836 231.96 332.728 228.924 345.414C226.227 356.872 222.426 368.042 217.575 378.768C216.451 381.202 215.259 383.602 213.998 385.969C213.344 387.197 215.21 388.291 215.866 387.061C221.227 376.817 225.507 366.042 228.639 354.912C232.152 342.522 234.699 329.878 236.256 317.094C237.982 303.224 238.823 289.258 238.773 275.281C238.742 260.597 237.868 245.928 236.155 231.344C234.442 216.579 231.897 201.921 228.535 187.442C225.181 172.939 220.926 158.659 215.795 144.686C210.85 131.158 204.929 118.008 198.078 105.338C191.554 93.2484 183.951 81.7726 175.361 71.0509C167.204 60.8422 157.891 51.6133 147.609 43.5487C137.694 35.7957 126.738 29.476 115.063 24.7753C112.21 23.6397 109.317 22.6127 106.385 21.6944C105.055 21.2757 104.485 23.363 105.81 23.78Z" fill="white"/>
<path d="M234.103 400C319.549 400 388.816 397.201 388.816 393.749C388.816 390.297 319.549 387.498 234.103 387.498C148.658 387.498 79.3906 390.297 79.3906 393.749C79.3906 397.201 148.658 400 234.103 400Z" fill="#E6E6E6"/>
<path d="M370.794 197.96C370.717 198.298 370.667 198.641 370.644 198.986L343.791 214.477L337.264 210.72L330.306 219.829L344.269 229.781L374.904 205.613C376.154 206.075 377.514 206.146 378.805 205.816C380.096 205.486 381.256 204.771 382.13 203.766C383.005 202.761 383.553 201.514 383.701 200.19C383.85 198.866 383.591 197.528 382.961 196.355C382.33 195.181 381.358 194.227 380.172 193.62C378.986 193.012 377.643 192.781 376.323 192.955C375.002 193.129 373.765 193.701 372.778 194.596C371.79 195.49 371.098 196.663 370.794 197.96Z" fill="#FFB8B8"/>
<path d="M309.638 207.464L330.782 222.534L340.238 210.678L319.685 194.186C318.801 193.476 317.781 192.955 316.688 192.653C315.595 192.352 314.452 192.276 313.329 192.432C312.206 192.587 311.127 192.971 310.157 193.558C309.187 194.145 308.348 194.925 307.69 195.848C306.408 197.647 305.893 199.881 306.258 202.06C306.624 204.238 307.839 206.182 309.638 207.464Z" fill="#0A66C2"/>
<path d="M265.993 379.41L273.406 381.352L284.427 353.683L273.486 350.815L265.993 379.41Z" fill="#FFB8B8"/>
<path d="M285.9 391.982L262.601 385.877L264.959 376.876L279.257 380.622C281.644 381.247 283.685 382.796 284.931 384.926C286.177 387.057 286.525 389.595 285.9 391.982Z" fill="#2F2E41"/>
<path d="M331.893 384.688L339.437 383.341L337.829 353.6L326.695 355.589L331.893 384.688Z" fill="#FFB8B8"/>
<path d="M355.238 387.747L331.528 391.982L329.891 382.822L344.441 380.223C345.644 380.008 346.878 380.032 348.071 380.294C349.265 380.556 350.395 381.05 351.398 381.749C352.401 382.447 353.256 383.337 353.915 384.366C354.573 385.395 355.023 386.544 355.238 387.747Z" fill="#2F2E41"/>
<path d="M317.038 165.97C318.897 166.422 320.409 168.317 321.317 170.511C322.155 172.816 322.722 175.211 323.008 177.646C323.721 182.183 324.407 187.093 322.931 191.295C321.201 196.219 316.591 198.798 312.592 197.586C308.593 196.374 305.413 191.825 304.327 186.588C303.337 181.296 303.975 175.83 306.155 170.908C307.291 168.321 308.856 165.936 310.937 164.769C311.958 164.152 313.174 163.944 314.342 164.187C315.509 164.43 316.541 165.107 317.231 166.08" fill="#2F2E41"/>
<path d="M327.556 248.1L341.919 376.742L330.056 381.247L308.178 294.983L277.718 373.857L264.733 374.578C264.733 374.578 282.549 251.851 295.752 249.062L327.556 248.1Z" fill="#2F2E41"/>
<path d="M315.492 182.387C323.971 182.387 330.845 175.513 330.845 167.034C330.845 158.555 323.971 151.681 315.492 151.681C307.013 151.681 300.139 158.555 300.139 167.034C300.139 175.513 307.013 182.387 315.492 182.387Z" fill="#FFB8B8"/>
<path d="M322.081 188.828L305.49 186.664C305.49 186.664 294.67 199.649 295.391 222.011C296.112 244.373 293.588 251.226 293.588 251.226L328.181 251.851C323.18 244.975 344.097 205.483 322.081 188.828Z" fill="#0A66C2"/>
<path d="M330.994 254.976C330.648 254.979 330.303 255.009 329.962 255.065L308.736 232.47L310.9 225.257L300.441 220.568L293.948 236.438L324.486 260.729C324.322 262.051 324.564 263.392 325.18 264.573C325.797 265.754 326.758 266.719 327.937 267.341C329.115 267.962 330.455 268.21 331.778 268.052C333.1 267.893 334.344 267.335 335.342 266.453C336.34 265.571 337.046 264.406 337.366 263.112C337.686 261.819 337.604 260.459 337.132 259.213C336.66 257.967 335.82 256.894 334.724 256.138C333.627 255.381 332.326 254.976 330.994 254.976Z" fill="#FFB8B8"/>
<path d="M307.747 197.619L297.916 221.65L311.622 228.142L322.972 204.36C323.461 203.337 323.735 202.225 323.778 201.092C323.822 199.959 323.634 198.829 323.225 197.771C322.817 196.714 322.197 195.751 321.403 194.941C320.609 194.132 319.659 193.493 318.609 193.063C317.597 192.649 316.513 192.439 315.419 192.443C314.325 192.448 313.243 192.668 312.235 193.091C311.226 193.514 310.31 194.132 309.54 194.909C308.77 195.685 308.161 196.606 307.747 197.619Z" fill="#0A66C2"/>
<path d="M311.476 180.992C313.882 179.604 314.138 176.256 313.811 173.498C313.484 170.741 312.938 167.666 314.559 165.411C316.494 162.72 320.381 162.666 323.695 162.578C327.009 162.49 331.044 161.52 331.902 158.318C332.47 156.203 331.256 153.933 329.514 152.605C327.772 151.277 325.593 150.69 323.475 150.132C318.737 148.884 313.845 147.625 308.994 148.311C304.189 148.991 299.845 151.535 296.901 155.393C293.957 159.251 292.651 164.113 293.265 168.927C294.05 175.085 295.189 177.774 294.441 180.489C293.049 185.546 287.046 188.795 286.926 194.039C286.833 198.141 290.456 201.305 293.991 203.388C296.795 205.04 299.821 206.442 303.052 206.829C306.284 207.216 309.763 206.475 312.17 204.285C315.275 201.46 316.043 196.741 315.152 192.639C314.262 188.537 311.978 184.894 309.719 181.356" fill="#2F2E41"/>
<path d="M601.976 185.59H380.065C378.573 185.592 377.143 186.186 376.089 187.24C375.034 188.295 374.441 189.724 374.439 191.216V333.739C374.441 335.23 375.034 336.66 376.089 337.715C377.143 338.769 378.573 339.363 380.065 339.365H601.976C603.467 339.363 604.897 338.769 605.951 337.715C607.006 336.66 607.599 335.23 607.602 333.739V191.216C607.599 189.724 607.006 188.295 605.951 187.24C604.897 186.186 603.467 185.592 601.976 185.59ZM606.351 333.739C606.35 334.899 605.889 336.011 605.068 336.832C604.248 337.652 603.136 338.113 601.976 338.115H380.065C378.904 338.113 377.792 337.652 376.972 336.832C376.152 336.011 375.69 334.899 375.689 333.739V191.216C375.69 190.056 376.152 188.943 376.972 188.123C377.792 187.303 378.904 186.841 380.065 186.84H601.976C603.136 186.841 604.248 187.303 605.068 188.123C605.889 188.943 606.35 190.056 606.351 191.216V333.739Z" fill="#3F3D56"/>
<path d="M427.432 256.536H392.426C391.017 256.535 389.667 255.974 388.671 254.978C387.675 253.982 387.114 252.632 387.113 251.223V216.217C387.114 214.808 387.675 213.458 388.671 212.462C389.667 211.466 391.017 210.905 392.426 210.904H427.432C428.84 210.905 430.191 211.466 431.187 212.462C432.183 213.458 432.743 214.808 432.745 216.217V251.223C432.743 252.632 432.183 253.982 431.187 254.978C430.191 255.974 428.84 256.535 427.432 256.536Z" fill="#0A66C2"/>
<path d="M590.418 293.736H391.636C390.558 293.736 389.525 293.308 388.763 292.546C388.001 291.784 387.573 290.75 387.573 289.673C387.573 288.595 388.001 287.561 388.763 286.799C389.525 286.037 390.558 285.609 391.636 285.609H590.418C591.496 285.609 592.53 286.037 593.291 286.799C594.053 287.561 594.482 288.595 594.482 289.673C594.482 290.75 594.053 291.784 593.291 292.546C592.53 293.308 591.496 293.736 590.418 293.736Z" fill="#CCCCCC"/>
<path d="M590.552 274.045H391.769C390.692 274.045 389.658 273.617 388.896 272.855C388.134 272.093 387.706 271.059 387.706 269.982C387.706 268.904 388.134 267.871 388.896 267.109C389.658 266.347 390.692 265.918 391.769 265.918H590.552C591.629 265.918 592.663 266.347 593.425 267.109C594.187 267.871 594.615 268.904 594.615 269.982C594.615 271.059 594.187 272.093 593.425 272.855C592.663 273.617 591.629 274.045 590.552 274.045Z" fill="#CCCCCC"/>
<path d="M492.411 247.16H463.031C461.953 247.16 460.92 246.731 460.158 245.969C459.396 245.207 458.968 244.174 458.968 243.096C458.968 242.019 459.396 240.985 460.158 240.223C460.92 239.461 461.953 239.033 463.031 239.033H492.411C493.488 239.033 494.522 239.461 495.284 240.223C496.046 240.985 496.474 242.019 496.474 243.096C496.474 244.174 496.046 245.207 495.284 245.969C494.522 246.731 493.488 247.16 492.411 247.16Z" fill="#CCCCCC"/>
<path d="M590.552 227.162H463.031C461.953 227.162 460.92 226.734 460.158 225.972C459.396 225.21 458.968 224.177 458.968 223.099C458.968 222.022 459.396 220.988 460.158 220.226C460.92 219.464 461.953 219.036 463.031 219.036H590.552C591.629 219.036 592.663 219.464 593.425 220.226C594.187 220.988 594.615 222.022 594.615 223.099C594.615 224.177 594.187 225.21 593.425 225.972C592.663 226.734 591.629 227.162 590.552 227.162Z" fill="#CCCCCC"/>
<path d="M487.41 313.739H391.636C390.558 313.739 389.525 313.311 388.763 312.549C388.001 311.787 387.573 310.754 387.573 309.676C387.573 308.598 388.001 307.565 388.763 306.803C389.525 306.041 390.558 305.613 391.636 305.613H487.41C488.488 305.613 489.521 306.041 490.283 306.803C491.045 307.565 491.473 308.598 491.473 309.676C491.473 310.754 491.045 311.787 490.283 312.549C489.521 313.311 488.488 313.739 487.41 313.739Z" fill="#CCCCCC"/>
</g>
<defs>
<clipPath id="clip0_22_993">
<rect width="607.602" height="400" fill="white"/>
</clipPath>
</defs>
</svg>
