<svg width="602" height="400" viewBox="0 0 602 400" fill="none" xmlns="http://www.w3.org/2000/svg">
<path d="M280.413 326.221C271.618 283.658 260.624 269.467 260.624 269.467L256.424 266.207L251.374 262.281L251.398 261.776L250.2 261.368L249.919 261.15L249.458 260.795L249.383 260.875L249.227 261.037L226.372 253.262L197.376 243.404L183.949 225.936C181.763 223.091 178.947 220.792 175.724 219.218C172.501 217.645 168.958 216.84 165.371 216.866L122.491 217.184C116.693 217.227 111.12 219.439 106.869 223.386L78.6845 249.552L34.767 270.546L34.6928 270.472L34.2317 270.801L27.446 274.049L27.726 275.508L23.5261 278.541C23.5261 278.541 12.5324 291.745 3.7373 331.349C1.49994 341.427 0.398631 363.044 0.0011171 389.681C-0.01885 391.029 0.229032 392.367 0.730344 393.618C1.23166 394.869 1.9764 396.007 2.92127 396.967C3.86614 397.927 4.99229 398.69 6.23424 399.211C7.47618 399.731 8.80914 400 10.1556 400H244.728L274.005 400C275.351 399.999 276.683 399.731 277.924 399.211C279.165 398.691 280.291 397.929 281.236 396.97C282.18 396.012 282.925 394.874 283.427 393.625C283.929 392.375 284.178 391.039 284.16 389.692C283.772 360.706 282.671 337.149 280.413 326.221Z" fill="#6C63FF"/>
<path d="M150.665 200.743C181.691 200.743 206.843 175.569 206.843 144.515C206.843 113.461 181.691 88.2871 150.665 88.2871C119.639 88.2871 94.4871 113.461 94.4871 144.515C94.4871 175.569 119.639 200.743 150.665 200.743Z" fill="#F2BDC5"/>
<path d="M136.294 197.99C136.054 197.461 135.814 196.93 135.576 196.397C135.668 196.4 135.759 196.414 135.851 196.416L136.294 197.99Z" fill="#2F2E41"/>
<path d="M92.9248 90.8439C95.7662 88.5753 99.087 86.4879 102.72 86.6052C106.352 86.7224 110.036 90.0063 109.284 93.5653C115.956 81.7405 126.577 72.6458 139.282 67.8777C151.986 63.1096 165.963 62.9727 178.758 67.4911C187.787 70.6794 196.641 77.0578 198.715 86.4129C199.248 88.8144 199.362 91.4476 200.86 93.3978C202.749 95.8564 206.363 96.4126 209.339 95.5477C209.369 95.5391 209.398 95.5303 209.428 95.5214C209.931 95.3496 210.473 95.3327 210.986 95.4729C211.498 95.6132 211.957 95.904 212.302 96.308C212.648 96.7119 212.864 97.2103 212.923 97.7387C212.983 98.267 212.882 98.8011 212.635 99.2717L210.081 104.04C213.301 104.759 216.647 104.688 219.834 103.833C220.363 103.694 220.923 103.722 221.435 103.914C221.948 104.106 222.389 104.452 222.697 104.904C223.006 105.357 223.167 105.894 223.159 106.441C223.15 106.989 222.972 107.521 222.65 107.964C214.226 119.539 200.153 127.014 185.792 126.926C175.584 126.864 165.272 123.343 155.338 125.692C151.495 126.601 147.904 128.36 144.828 130.839C141.753 133.318 139.271 136.455 137.565 140.019C135.858 143.584 134.971 147.485 134.968 151.437C134.964 155.39 135.845 159.293 137.546 162.86C134.494 159.519 128.594 160.31 125.473 163.586C122.351 166.862 121.543 171.751 121.858 176.267C122.338 183.174 125.042 189.682 127.893 196.016C103.995 195.263 81.3919 178.485 73.7837 155.791C66.1435 133.003 74.1507 105.834 92.9248 90.8439Z" fill="#2F2E41"/>
<path opacity="0.2" d="M55.2937 313.371L71.0504 399.176L80.5048 400L55.2937 313.371Z" fill="black"/>
<path opacity="0.2" d="M228.857 306.9L213.1 399.114L203.646 400L228.857 306.9Z" fill="black"/>
<path d="M240.51 33.1187C231.384 33.1187 222.631 36.7472 216.178 43.2062C209.725 49.6651 206.1 58.4253 206.1 67.5596C206.1 76.694 209.725 85.4542 216.178 91.9131C222.631 98.372 231.384 102.001 240.51 102.001H496.95C506.077 102.001 514.829 98.372 521.282 91.9131C527.735 85.4542 531.361 76.694 531.361 67.5596C531.361 58.4253 527.735 49.6651 521.282 43.2062C514.829 36.7472 506.077 33.1187 496.95 33.1187H240.51Z" fill="#BAEAC0"/>
<path d="M240.51 40.0889C233.231 40.0889 226.25 42.9831 221.102 48.1349C215.955 53.2866 213.063 60.274 213.063 67.5597C213.063 74.8454 215.955 81.8327 221.102 86.9844C226.25 92.1362 233.231 95.0305 240.51 95.0305H496.95C504.229 95.0305 511.21 92.1362 516.358 86.9844C521.505 81.8327 524.397 74.8454 524.397 67.5597C524.397 60.274 521.505 53.2866 516.358 48.1349C511.21 42.9831 504.229 40.0889 496.95 40.0889H240.51Z" fill="white"/>
<path d="M253 72.0071C255.209 72.0071 257 70.2146 257 68.0035C257 65.7924 255.209 64 253 64C250.791 64 249 65.7924 249 68.0035C249 70.2146 250.791 72.0071 253 72.0071Z" fill="#22BB33"/>
<path d="M285 72.0071C287.209 72.0071 289 70.2146 289 68.0035C289 65.7924 287.209 64 285 64C282.791 64 281 65.7924 281 68.0035C281 70.2146 282.791 72.0071 285 72.0071Z" fill="#22BB33"/>
<path d="M317 72.0071C319.209 72.0071 321 70.2146 321 68.0035C321 65.7924 319.209 64 317 64C314.791 64 313 65.7924 313 68.0035C313 70.2146 314.791 72.0071 317 72.0071Z" fill="#22BB33"/>
<path d="M349 72.0071C351.209 72.0071 353 70.2146 353 68.0035C353 65.7924 351.209 64 349 64C346.791 64 345 65.7924 345 68.0035C345 70.2146 346.791 72.0071 349 72.0071Z" fill="#22BB33"/>
<path d="M381 72.0071C383.209 72.0071 385 70.2146 385 68.0035C385 65.7924 383.209 64 381 64C378.791 64 377 65.7924 377 68.0035C377 70.2146 378.791 72.0071 381 72.0071Z" fill="#22BB33"/>
<path d="M413 72.0071C415.209 72.0071 417 70.2146 417 68.0035C417 65.7924 415.209 64 413 64C410.791 64 409 65.7924 409 68.0035C409 70.2146 410.791 72.0071 413 72.0071Z" fill="#22BB33"/>
<path d="M445 72.0071C447.209 72.0071 449 70.2146 449 68.0035C449 65.7924 447.209 64 445 64C442.791 64 441 65.7924 441 68.0035C441 70.2146 442.791 72.0071 445 72.0071Z" fill="#22BB33"/>
<path d="M477 72.0071C479.209 72.0071 481 70.2146 481 68.0035C481 65.7924 479.209 64 477 64C474.791 64 473 65.7924 473 68.0035C473 70.2146 474.791 72.0071 477 72.0071Z" fill="#22BB33"/>
<path d="M517 64C534.673 64 549 49.6731 549 32C549 14.3269 534.673 0 517 0C499.327 0 485 14.3269 485 32C485 49.6731 499.327 64 517 64Z" fill="#22BB33"/>
<path d="M513.551 44.888C513.121 44.888 512.698 44.7879 512.313 44.5958C511.929 44.4037 511.595 44.1248 511.338 43.7811L504.553 34.7344C504.335 34.4437 504.176 34.113 504.086 33.7611C503.996 33.4092 503.976 33.0429 504.027 32.6833C504.079 32.3237 504.2 31.9777 504.386 31.6651C504.571 31.3525 504.815 31.0794 505.106 30.8614C505.693 30.4212 506.431 30.2322 507.157 30.336C507.517 30.3874 507.863 30.5091 508.175 30.6942C508.488 30.8793 508.761 31.1242 508.979 31.4148L513.418 37.333L524.819 20.2319C525.226 19.6214 525.859 19.1976 526.578 19.0537C527.298 18.9098 528.045 19.0576 528.655 19.4646C529.266 19.8716 529.69 20.5045 529.834 21.224C529.977 21.9434 529.83 22.6906 529.423 23.3011L515.853 43.656C515.607 44.0241 515.277 44.328 514.89 44.5422C514.503 44.7564 514.07 44.8747 513.628 44.8871C513.602 44.8875 513.576 44.888 513.551 44.888Z" fill="white"/>
</svg>
