<svg width="20" height="20" viewBox="0 0 20 20" fill="none" xmlns="http://www.w3.org/2000/svg">
<path d="M13.125 11.25C13.125 11.8681 12.9417 12.4723 12.5983 12.9862C12.255 13.5001 11.7669 13.9006 11.1959 14.1371C10.6249 14.3736 9.99653 14.4355 9.39034 14.315C8.78415 14.1944 8.22733 13.8967 7.79029 13.4597C7.35325 13.0227 7.05563 12.4658 6.93505 11.8597C6.81447 11.2535 6.87635 10.6251 7.11288 10.0541C7.3494 9.48309 7.74994 8.99504 8.26384 8.65166C8.77775 8.30828 9.38193 8.125 10 8.125C10.8288 8.125 11.6237 8.45424 12.2097 9.04029C12.7958 9.62634 13.125 10.4212 13.125 11.25ZM5 4.375C4.50555 4.375 4.0222 4.52162 3.61108 4.79633C3.19995 5.07103 2.87952 5.46148 2.6903 5.91829C2.50108 6.37511 2.45157 6.87777 2.54804 7.36273C2.6445 7.84768 2.8826 8.29314 3.23223 8.64277C3.58187 8.9924 4.02732 9.2305 4.51228 9.32696C4.99723 9.42343 5.49989 9.37392 5.95671 9.1847C6.41353 8.99548 6.80397 8.67505 7.07868 8.26393C7.35338 7.8528 7.5 7.36945 7.5 6.875C7.5 6.21196 7.23661 5.57607 6.76777 5.10723C6.29893 4.63839 5.66304 4.375 5 4.375ZM15 4.375C14.5055 4.375 14.0222 4.52162 13.6111 4.79633C13.2 5.07103 12.8795 5.46148 12.6903 5.91829C12.5011 6.37511 12.4516 6.87777 12.548 7.36273C12.6445 7.84768 12.8826 8.29314 13.2322 8.64277C13.5819 8.9924 14.0273 9.2305 14.5123 9.32696C14.9972 9.42343 15.4999 9.37392 15.9567 9.1847C16.4135 8.99548 16.804 8.67505 17.0787 8.26393C17.3534 7.8528 17.5 7.36945 17.5 6.875C17.5 6.21196 17.2366 5.57607 16.7678 5.10723C16.2989 4.63839 15.663 4.375 15 4.375Z" fill="#1C1C1C" fill-opacity="0.1"/>
<path d="M19.125 11.7503C19.0593 11.7995 18.9846 11.8354 18.9051 11.8557C18.8256 11.8761 18.7429 11.8806 18.6616 11.869C18.5804 11.8574 18.5022 11.8299 18.4316 11.7881C18.3609 11.7463 18.2992 11.691 18.25 11.6253C17.8733 11.1189 17.3829 10.7081 16.8185 10.4259C16.254 10.1436 15.6311 9.99785 15 10.0003C14.8342 10.0003 14.6753 9.93445 14.558 9.81724C14.4408 9.70003 14.375 9.54106 14.375 9.3753C14.375 9.20954 14.4408 9.05057 14.558 8.93336C14.6753 8.81615 14.8342 8.7503 15 8.7503C15.3507 8.75027 15.6943 8.6519 15.9919 8.46635C16.2895 8.2808 16.529 8.01553 16.6834 7.70065C16.8378 7.38577 16.9007 7.03391 16.8651 6.68504C16.8296 6.33617 16.6969 6.00427 16.4821 5.72704C16.2673 5.44981 15.9791 5.23837 15.6502 5.11672C15.3213 4.99508 14.9649 4.96811 14.6214 5.03888C14.278 5.10966 13.9612 5.27533 13.7072 5.51709C13.4532 5.75885 13.272 6.06701 13.1844 6.40655C13.1638 6.48606 13.1279 6.56075 13.0785 6.62636C13.0291 6.69197 12.9673 6.74721 12.8965 6.78892C12.8258 6.83063 12.7476 6.85801 12.6662 6.86948C12.5849 6.88095 12.5022 6.87629 12.4226 6.85577C12.3431 6.83525 12.2684 6.79927 12.2028 6.74989C12.1372 6.7005 12.082 6.63868 12.0403 6.56795C11.9986 6.49722 11.9712 6.41896 11.9597 6.33765C11.9483 6.25634 11.9529 6.17356 11.9734 6.09405C12.0951 5.6232 12.325 5.18725 12.6448 4.82089C12.9646 4.45452 13.3656 4.16786 13.8157 3.9837C14.2658 3.79954 14.7526 3.72298 15.2375 3.76009C15.7224 3.79721 16.192 3.94698 16.6088 4.1975C17.0256 4.44802 17.3782 4.79236 17.6386 5.20313C17.8989 5.6139 18.0598 6.07976 18.1084 6.56364C18.157 7.04753 18.092 7.53608 17.9186 7.99042C17.7451 8.44476 17.468 8.85236 17.1094 9.18077C17.9592 9.54874 18.698 10.1327 19.2523 10.8745C19.3016 10.9403 19.3374 11.0152 19.3576 11.0949C19.3779 11.1746 19.3822 11.2575 19.3704 11.3388C19.3585 11.4202 19.3308 11.4984 19.2887 11.569C19.2466 11.6396 19.1909 11.7012 19.125 11.7503ZM14.9156 16.5628C14.9593 16.6339 14.9882 16.7131 15.0007 16.7956C15.0133 16.8781 15.0092 16.9623 14.9886 17.0432C14.9681 17.1241 14.9316 17.2001 14.8812 17.2667C14.8309 17.3332 14.7677 17.389 14.6954 17.4308C14.6232 17.4725 14.5433 17.4993 14.4605 17.5097C14.3776 17.5201 14.2936 17.5138 14.2133 17.4911C14.1329 17.4685 14.0579 17.43 13.9927 17.3779C13.9275 17.3258 13.8734 17.2611 13.8336 17.1878C13.4398 16.5213 12.8791 15.969 12.2068 15.5853C11.5345 15.2016 10.7737 14.9998 9.9996 14.9998C9.22549 14.9998 8.46475 15.2016 7.79242 15.5853C7.12008 15.969 6.55938 16.5213 6.16562 17.1878C6.12655 17.2625 6.07277 17.3285 6.00752 17.3819C5.94228 17.4352 5.86691 17.4749 5.78595 17.4983C5.705 17.5218 5.62013 17.5287 5.53645 17.5185C5.45277 17.5084 5.37202 17.4814 5.29904 17.4392C5.22606 17.397 5.16237 17.3405 5.1118 17.2731C5.06122 17.2056 5.02481 17.1287 5.00476 17.0468C4.98471 16.9649 4.98142 16.8798 4.9951 16.7967C5.00878 16.7135 5.03915 16.6339 5.08437 16.5628C5.6903 15.5217 6.61421 14.7024 7.7203 14.2253C7.0979 13.7488 6.64048 13.0892 6.41234 12.3392C6.18419 11.5893 6.19679 10.7867 6.44836 10.0443C6.69994 9.30188 7.17784 8.65697 7.81489 8.20021C8.45194 7.74344 9.21611 7.4978 9.99999 7.4978C10.7839 7.4978 11.548 7.74344 12.1851 8.20021C12.8221 8.65697 13.3 9.30188 13.5516 10.0443C13.8032 10.7867 13.8158 11.5893 13.5876 12.3392C13.3595 13.0892 12.9021 13.7488 12.2797 14.2253C13.3858 14.7024 14.3097 15.5217 14.9156 16.5628ZM9.99999 13.7503C10.4944 13.7503 10.9778 13.6037 11.3889 13.329C11.8 13.0543 12.1205 12.6638 12.3097 12.207C12.4989 11.7502 12.5484 11.2475 12.452 10.7626C12.3555 10.2776 12.1174 9.83217 11.7678 9.48254C11.4181 9.1329 10.9727 8.8948 10.4877 8.79834C10.0028 8.70188 9.5001 8.75138 9.04328 8.9406C8.58647 9.12982 8.19602 9.45025 7.92132 9.86138C7.64662 10.2725 7.49999 10.7558 7.49999 11.2503C7.49999 11.9133 7.76338 12.5492 8.23223 13.0181C8.70107 13.4869 9.33695 13.7503 9.99999 13.7503ZM5.62499 9.3753C5.62499 9.20954 5.55914 9.05057 5.44193 8.93336C5.32472 8.81615 5.16575 8.7503 4.99999 8.7503C4.64931 8.75027 4.30567 8.6519 4.00809 8.46635C3.71052 8.2808 3.47094 8.01553 3.31658 7.70065C3.16222 7.38577 3.09925 7.03391 3.13484 6.68504C3.17042 6.33617 3.30313 6.00427 3.51789 5.72704C3.73265 5.44981 4.02085 5.23837 4.34976 5.11672C4.67866 4.99508 5.03509 4.96811 5.37856 5.03888C5.72203 5.10966 6.03876 5.27533 6.29279 5.51709C6.54681 5.75885 6.72795 6.06701 6.81562 6.40655C6.85706 6.56713 6.96059 6.70467 7.10344 6.78892C7.24629 6.87316 7.41676 6.89721 7.57734 6.85577C7.73792 6.81433 7.87546 6.7108 7.9597 6.56795C8.04395 6.4251 8.06799 6.25463 8.02655 6.09405C7.90487 5.6232 7.67497 5.18725 7.35516 4.82089C7.03534 4.45452 6.63443 4.16786 6.18433 3.9837C5.73423 3.79954 5.24736 3.72298 4.76246 3.76009C4.27756 3.79721 3.80801 3.94698 3.39119 4.1975C2.97436 4.44802 2.62175 4.79236 2.36142 5.20313C2.10108 5.6139 1.94021 6.07976 1.89161 6.56364C1.843 7.04753 1.908 7.53608 2.08143 7.99042C2.25486 8.44476 2.53194 8.85236 2.89062 9.18077C2.04162 9.54909 1.30368 10.133 0.749993 10.8745C0.650433 11.0071 0.607629 11.1739 0.630998 11.338C0.654367 11.5022 0.741994 11.6504 0.874602 11.7499C1.00721 11.8495 1.17394 11.8923 1.3381 11.8689C1.50227 11.8455 1.65043 11.7579 1.74999 11.6253C2.1267 11.1189 2.61703 10.7081 3.18152 10.4259C3.74601 10.1436 4.36888 9.99785 4.99999 10.0003C5.16575 10.0003 5.32472 9.93445 5.44193 9.81724C5.55914 9.70003 5.62499 9.54106 5.62499 9.3753Z" fill="#1C1C1C"/>
</svg>
