<svg width="16" height="16" viewBox="0 0 16 16" fill="none" xmlns="http://www.w3.org/2000/svg">
<path d="M14.4325 13.2497C13.4806 11.6041 12.0138 10.4241 10.3019 9.86475C11.1486 9.36066 11.8065 8.59255 12.1745 7.67837C12.5425 6.76419 12.6002 5.7545 12.3388 4.80435C12.0774 3.85419 11.5113 3.01612 10.7275 2.41883C9.94367 1.82153 8.98546 1.49805 8 1.49805C7.01455 1.49805 6.05633 1.82153 5.27252 2.41883C4.4887 3.01612 3.92262 3.85419 3.66121 4.80435C3.39981 5.7545 3.45752 6.76419 3.82549 7.67837C4.19347 8.59255 4.85136 9.36066 5.69813 9.86475C3.98625 10.4235 2.51938 11.6035 1.5675 13.2497C1.53259 13.3067 1.50944 13.37 1.49941 13.436C1.48937 13.502 1.49266 13.5694 1.50908 13.6341C1.5255 13.6988 1.55471 13.7596 1.595 13.8128C1.63528 13.8661 1.68582 13.9107 1.74364 13.9441C1.80146 13.9775 1.86538 13.999 1.93163 14.0073C1.99788 14.0156 2.06513 14.0105 2.12939 13.9924C2.19365 13.9743 2.25364 13.9435 2.30581 13.9018C2.35797 13.8601 2.40126 13.8084 2.43313 13.7497C3.61063 11.7147 5.69188 10.4997 8 10.4997C10.3081 10.4997 12.3894 11.7147 13.5669 13.7497C13.5987 13.8084 13.642 13.8601 13.6942 13.9018C13.7464 13.9435 13.8063 13.9743 13.8706 13.9924C13.9349 14.0105 14.0021 14.0156 14.0684 14.0073C14.1346 13.999 14.1985 13.9775 14.2564 13.9441C14.3142 13.9107 14.3647 13.8661 14.405 13.8128C14.4453 13.7596 14.4745 13.6988 14.4909 13.6341C14.5073 13.5694 14.5106 13.502 14.5006 13.436C14.4906 13.37 14.4674 13.3067 14.4325 13.2497ZM4.5 5.99975C4.5 5.30751 4.70527 4.63082 5.08986 4.05525C5.47444 3.47968 6.02107 3.03108 6.66061 2.76617C7.30015 2.50126 8.00389 2.43195 8.68282 2.567C9.36175 2.70205 9.98539 3.03539 10.4749 3.52487C10.9644 4.01436 11.2977 4.638 11.4328 5.31693C11.5678 5.99586 11.4985 6.6996 11.2336 7.33914C10.9687 7.97868 10.5201 8.52531 9.9445 8.90989C9.36893 9.29448 8.69224 9.49975 8 9.49975C7.07205 9.49875 6.18239 9.12969 5.52622 8.47353C4.87006 7.81736 4.50099 6.9277 4.5 5.99975Z" fill="#1C1C1C"/>
</svg>
